<?xml version="1.0" encoding="UTF-8" standalone="no"?>
<!DOCTYPE svg PUBLIC "-//W3C//DTD SVG 1.1//EN"
 "http://www.w3.org/Graphics/SVG/1.1/DTD/svg11.dtd">
<!-- Generated by graphviz version 3.0.0 (20220226.1711)
 -->
<!-- Title: schedule Pages: 1 -->
<svg width="1560pt" height="987pt"
 viewBox="0.00 0.00 1560.00 987.00" xmlns="http://www.w3.org/2000/svg" xmlns:xlink="http://www.w3.org/1999/xlink">
<g id="graph0" class="graph" transform="scale(1 1) rotate(0) translate(4 983)">
<title>schedule</title>
<polygon fill="#35393f" stroke="transparent" points="-4,4 -4,-983 1556,-983 1556,4 -4,4"/>
<g id="clust1" class="cluster">
<title>cluster_Extract</title>
<path fill="#99aab5" stroke="#99aab5" d="M20,-8C20,-8 289,-8 289,-8 295,-8 301,-14 301,-20 301,-20 301,-959 301,-959 301,-965 295,-971 289,-971 289,-971 20,-971 20,-971 14,-971 8,-965 8,-959 8,-959 8,-20 8,-20 8,-14 14,-8 20,-8"/>
<text text-anchor="middle" x="154.5" y="-954.2" font-family="Helvetica,sans-Serif" font-size="16.00">Extract</text>
</g>
<g id="clust2" class="cluster">
<title>cluster_Prepare</title>
<path fill="#99aab5" stroke="#99aab5" d="M333,-404C333,-404 598,-404 598,-404 604,-404 610,-410 610,-416 610,-416 610,-959 610,-959 610,-965 604,-971 598,-971 598,-971 333,-971 333,-971 327,-971 321,-965 321,-959 321,-959 321,-416 321,-416 321,-410 327,-404 333,-404"/>
<text text-anchor="middle" x="465.5" y="-954.2" font-family="Helvetica,sans-Serif" font-size="16.00">Prepare</text>
</g>
<g id="clust3" class="cluster">
<title>cluster_Queue</title>
<path fill="#99aab5" stroke="#99aab5" d="M642,-536C642,-536 877,-536 877,-536 883,-536 889,-542 889,-548 889,-548 889,-959 889,-959 889,-965 883,-971 877,-971 877,-971 642,-971 642,-971 636,-971 630,-965 630,-959 630,-959 630,-548 630,-548 630,-542 636,-536 642,-536"/>
<text text-anchor="middle" x="759.5" y="-954.2" font-family="Helvetica,sans-Serif" font-size="16.00">Queue</text>
</g>
<g id="clust4" class="cluster">
<title>cluster_PhaseSort</title>
<path fill="#99aab5" stroke="#99aab5" d="M921,-668C921,-668 1120,-668 1120,-668 1126,-668 1132,-674 1132,-680 1132,-680 1132,-959 1132,-959 1132,-965 1126,-971 1120,-971 1120,-971 921,-971 921,-971 915,-971 909,-965 909,-959 909,-959 909,-680 909,-680 909,-674 915,-668 921,-668"/>
<text text-anchor="middle" x="1020.5" y="-954.2" font-family="Helvetica,sans-Serif" font-size="16.00">PhaseSort</text>
</g>
<g id="clust5" class="cluster">
<title>cluster_Render</title>
<path fill="#99aab5" stroke="#99aab5" d="M1164,-833C1164,-833 1331,-833 1331,-833 1337,-833 1343,-839 1343,-845 1343,-845 1343,-959 1343,-959 1343,-965 1337,-971 1331,-971 1331,-971 1164,-971 1164,-971 1158,-971 1152,-965 1152,-959 1152,-959 1152,-845 1152,-845 1152,-839 1158,-833 1164,-833"/>
<text text-anchor="middle" x="1247.5" y="-954.2" font-family="Helvetica,sans-Serif" font-size="16.00">Render</text>
</g>
<g id="clust6" class="cluster">
<title>cluster_Cleanup</title>
<path fill="#99aab5" stroke="#99aab5" d="M1375,-866C1375,-866 1532,-866 1532,-866 1538,-866 1544,-872 1544,-878 1544,-878 1544,-959 1544,-959 1544,-965 1538,-971 1532,-971 1532,-971 1375,-971 1375,-971 1369,-971 1363,-965 1363,-959 1363,-959 1363,-878 1363,-878 1363,-872 1369,-866 1375,-866"/>
<text text-anchor="middle" x="1453.5" y="-954.2" font-family="Helvetica,sans-Serif" font-size="16.00">Cleanup</text>
</g>
<!-- MARKER_schedule_Extract -->
<!-- MARKER_schedule_Prepare -->
<!-- MARKER_schedule_Extract&#45;&gt;MARKER_schedule_Prepare -->
<g id="edge8" class="edge">
<title>MARKER_schedule_Extract&#45;&gt;MARKER_schedule_Prepare</title>
<path fill="none" stroke="white" d="M234.27,-922C277.07,-922 330.17,-922 374.58,-922"/>
<polygon fill="white" stroke="white" points="374.8,-925.5 384.8,-922 374.8,-918.5 374.8,-925.5"/>
</g>
<!-- schedule_bevy_core_pipeline::extract_clear_color_0 -->
<g id="node2" class="node">
<title>schedule_bevy_core_pipeline::extract_clear_color_0</title>
<g id="a_node2"><a xlink:title="Res [ClearColor, RenderTargetClearColors]&#10;ResMut [RenderWorld]&#10;">
<polygon fill="#eff1f3" stroke="#eff1f3" points="207,-903.5 102,-903.5 102,-874.5 207,-874.5 207,-903.5"/>
<text text-anchor="middle" x="154.5" y="-885.3" font-family="Times,serif" font-size="14.00">extract_clear_color</text>
</a>
</g>
</g>
<!-- schedule_bevy_core_pipeline::extract_core_pipeline_camera_phases_1 -->
<g id="node3" class="node">
<title>schedule_bevy_core_pipeline::extract_core_pipeline_camera_phases_1</title>
<g id="a_node3"><a xlink:title="Res [ActiveCamera&lt;Camera3d&gt;, ActiveCamera&lt;Camera2d&gt;]&#10;">
<polygon fill="#eff1f3" stroke="#eff1f3" points="258,-870.5 51,-870.5 51,-841.5 258,-841.5 258,-870.5"/>
<text text-anchor="middle" x="154.5" y="-852.3" font-family="Times,serif" font-size="14.00">extract_core_pipeline_camera_phases</text>
</a>
</g>
</g>
<!-- schedule_bevy_egui::render_systems::extract_egui_render_data_2 -->
<g id="node4" class="node">
<title>schedule_bevy_egui::render_systems::extract_egui_render_data_2</title>
<g id="a_node4"><a xlink:title="Res [EguiSettings, EguiContext]&#10;ResMut [HashMap&lt;WindowId, WindowSize&gt;, HashMap&lt;WindowId, EguiRenderOutput&gt;]&#10;">
<polygon fill="#eff1f3" stroke="#eff1f3" points="223.5,-837.5 85.5,-837.5 85.5,-808.5 223.5,-808.5 223.5,-837.5"/>
<text text-anchor="middle" x="154.5" y="-819.3" font-family="Times,serif" font-size="14.00">extract_egui_render_data</text>
</a>
</g>
</g>
<!-- schedule_bevy_egui::render_systems::extract_egui_textures_3 -->
<g id="node5" class="node">
<title>schedule_bevy_egui::render_systems::extract_egui_textures_3</title>
<g id="a_node5"><a xlink:title="Res [EguiContext]&#10;ResMut [EguiManagedTextures]&#10;">
<polygon fill="#eff1f3" stroke="#eff1f3" points="213,-804.5 96,-804.5 96,-775.5 213,-775.5 213,-804.5"/>
<text text-anchor="middle" x="154.5" y="-786.3" font-family="Times,serif" font-size="14.00">extract_egui_textures</text>
</a>
</g>
</g>
<!-- schedule_bevy_pbr::render::light::extract_clusters_4 -->
<g id="node6" class="node">
<title>schedule_bevy_pbr::render::light::extract_clusters_4</title>
<g id="a_node6"><a xlink:title="Components [Clusters]&#10;">
<polygon fill="#eff1f3" stroke="#eff1f3" points="197,-771.5 112,-771.5 112,-742.5 197,-742.5 197,-771.5"/>
<text text-anchor="middle" x="154.5" y="-753.3" font-family="Times,serif" font-size="14.00">extract_clusters</text>
</a>
</g>
</g>
<!-- schedule_bevy_pbr::render::light::extract_lights_5 -->
<g id="node7" class="node">
<title>schedule_bevy_pbr::render::light::extract_lights_5</title>
<g id="a_node7"><a xlink:title="Components [GlobalTransform, DirectionalLight, Visibility, PointLight]&#10;ComponentsMut [VisibleEntities, CubemapVisibleEntities]&#10;Res [AmbientLight, GlobalVisiblePointLights, DirectionalLightShadowMap, PointLightShadowMap]&#10;">
<polygon fill="#eff1f3" stroke="#eff1f3" points="191.5,-738.5 117.5,-738.5 117.5,-709.5 191.5,-709.5 191.5,-738.5"/>
<text text-anchor="middle" x="154.5" y="-720.3" font-family="Times,serif" font-size="14.00">extract_lights</text>
</a>
</g>
</g>
<!-- schedule_bevy_pbr::render::mesh::extract_meshes_6 -->
<g id="node8" class="node">
<title>schedule_bevy_pbr::render::mesh::extract_meshes_6</title>
<g id="a_node8"><a xlink:title="Components [GlobalTransform, Handle&lt;Mesh&gt;, ComputedVisibility, NotShadowReceiver]&#10;">
<polygon fill="#eff1f3" stroke="#eff1f3" points="197,-705.5 112,-705.5 112,-676.5 197,-676.5 197,-705.5"/>
<text text-anchor="middle" x="154.5" y="-687.3" font-family="Times,serif" font-size="14.00">extract_meshes</text>
</a>
</g>
</g>
<!-- schedule_bevy_pbr::render::mesh::extract_skinned_meshes_7 -->
<g id="node9" class="node">
<title>schedule_bevy_pbr::render::mesh::extract_skinned_meshes_7</title>
<g id="a_node9"><a xlink:title="Components [GlobalTransform, ComputedVisibility, SkinnedMesh]&#10;Res [Assets&lt;SkinnedMeshInverseBindposes&gt;]&#10;">
<polygon fill="#eff1f3" stroke="#eff1f3" points="221,-672.5 88,-672.5 88,-643.5 221,-643.5 221,-672.5"/>
<text text-anchor="middle" x="154.5" y="-654.3" font-family="Times,serif" font-size="14.00">extract_skinned_meshes</text>
</a>
</g>
</g>
<!-- schedule_bevy_render::camera::camera::extract_cameras&lt;bevy_render::camera::bundle::Camera2d&gt;_8 -->
<g id="node10" class="node">
<title>schedule_bevy_render::camera::camera::extract_cameras&lt;bevy_render::camera::bundle::Camera2d&gt;_8</title>
<g id="a_node10"><a xlink:title="Components [Camera, VisibleEntities, GlobalTransform]&#10;Res [Windows, ActiveCamera&lt;Camera2d&gt;, Assets&lt;Image&gt;]&#10;">
<polygon fill="#eff1f3" stroke="#eff1f3" points="235.5,-639.5 73.5,-639.5 73.5,-610.5 235.5,-610.5 235.5,-639.5"/>
<text text-anchor="middle" x="154.5" y="-621.3" font-family="Times,serif" font-size="14.00">extract_cameras&lt;Camera2d&gt;</text>
</a>
</g>
</g>
<!-- schedule_bevy_render::camera::camera::extract_cameras&lt;bevy_render::camera::bundle::Camera3d&gt;_9 -->
<g id="node11" class="node">
<title>schedule_bevy_render::camera::camera::extract_cameras&lt;bevy_render::camera::bundle::Camera3d&gt;_9</title>
<g id="a_node11"><a xlink:title="Components [Camera, VisibleEntities, GlobalTransform]&#10;Res [Windows, ActiveCamera&lt;Camera3d&gt;, Assets&lt;Image&gt;]&#10;">
<polygon fill="#eff1f3" stroke="#eff1f3" points="235.5,-606.5 73.5,-606.5 73.5,-577.5 235.5,-577.5 235.5,-606.5"/>
<text text-anchor="middle" x="154.5" y="-588.3" font-family="Times,serif" font-size="14.00">extract_cameras&lt;Camera3d&gt;</text>
</a>
</g>
</g>
<!-- schedule_bevy_render::camera::camera::extract_cameras&lt;bevy_ui::entity::CameraUi&gt;_10 -->
<g id="node12" class="node">
<title>schedule_bevy_render::camera::camera::extract_cameras&lt;bevy_ui::entity::CameraUi&gt;_10</title>
<g id="a_node12"><a xlink:title="Components [Camera, VisibleEntities, GlobalTransform]&#10;Res [Windows, Assets&lt;Image&gt;, ActiveCamera&lt;CameraUi&gt;]&#10;">
<polygon fill="#eff1f3" stroke="#eff1f3" points="235.5,-573.5 73.5,-573.5 73.5,-544.5 235.5,-544.5 235.5,-573.5"/>
<text text-anchor="middle" x="154.5" y="-555.3" font-family="Times,serif" font-size="14.00">extract_cameras&lt;CameraUi&gt;</text>
</a>
</g>
</g>
<!-- schedule_bevy_render::render_asset::extract_render_asset&lt;bevy_pbr::pbr_material::StandardMaterial&gt;_11 -->
<g id="node13" class="node">
<title>schedule_bevy_render::render_asset::extract_render_asset&lt;bevy_pbr::pbr_material::StandardMaterial&gt;_11</title>
<g id="a_node13"><a xlink:title="Res [Assets&lt;StandardMaterial&gt;, Events&lt;AssetEvent&lt;StandardMaterial&gt;&gt;]&#10;">
<polygon fill="#eff1f3" stroke="#eff1f3" points="266,-540.5 43,-540.5 43,-511.5 266,-511.5 266,-540.5"/>
<text text-anchor="middle" x="154.5" y="-522.3" font-family="Times,serif" font-size="14.00">extract_render_asset&lt;StandardMaterial&gt;</text>
</a>
</g>
</g>
<!-- schedule_bevy_render::render_asset::extract_render_asset&lt;bevy_render::mesh::mesh::Mesh&gt;_12 -->
<g id="node14" class="node">
<title>schedule_bevy_render::render_asset::extract_render_asset&lt;bevy_render::mesh::mesh::Mesh&gt;_12</title>
<g id="a_node14"><a xlink:title="Res [Assets&lt;Mesh&gt;, Events&lt;AssetEvent&lt;Mesh&gt;&gt;]&#10;">
<polygon fill="#eff1f3" stroke="#eff1f3" points="234,-507.5 75,-507.5 75,-478.5 234,-478.5 234,-507.5"/>
<text text-anchor="middle" x="154.5" y="-489.3" font-family="Times,serif" font-size="14.00">extract_render_asset&lt;Mesh&gt;</text>
</a>
</g>
</g>
<!-- schedule_bevy_render::render_asset::extract_render_asset&lt;bevy_render::texture::image::Image&gt;_13 -->
<g id="node15" class="node">
<title>schedule_bevy_render::render_asset::extract_render_asset&lt;bevy_render::texture::image::Image&gt;_13</title>
<g id="a_node15"><a xlink:title="Res [Assets&lt;Image&gt;, Events&lt;AssetEvent&lt;Image&gt;&gt;]&#10;">
<polygon fill="#eff1f3" stroke="#eff1f3" points="236,-474.5 73,-474.5 73,-445.5 236,-445.5 236,-474.5"/>
<text text-anchor="middle" x="154.5" y="-456.3" font-family="Times,serif" font-size="14.00">extract_render_asset&lt;Image&gt;</text>
</a>
</g>
</g>
<!-- schedule_bevy_render::render_asset::extract_render_asset&lt;bevy_sprite::mesh2d::color_material::ColorMaterial&gt;_14 -->
<g id="node16" class="node">
<title>schedule_bevy_render::render_asset::extract_render_asset&lt;bevy_sprite::mesh2d::color_material::ColorMaterial&gt;_14</title>
<g id="a_node16"><a xlink:title="Res [Assets&lt;ColorMaterial&gt;, Events&lt;AssetEvent&lt;ColorMaterial&gt;&gt;]&#10;">
<polygon fill="#eff1f3" stroke="#eff1f3" points="257,-441.5 52,-441.5 52,-412.5 257,-412.5 257,-441.5"/>
<text text-anchor="middle" x="154.5" y="-423.3" font-family="Times,serif" font-size="14.00">extract_render_asset&lt;ColorMaterial&gt;</text>
</a>
</g>
</g>
<!-- schedule_bevy_render::render_component::extract_components&lt;bevy_asset::handle::Handle&lt;bevy_pbr::pbr_material::StandardMaterial&gt;&gt;_15 -->
<g id="node17" class="node">
<title>schedule_bevy_render::render_component::extract_components&lt;bevy_asset::handle::Handle&lt;bevy_pbr::pbr_material::StandardMaterial&gt;&gt;_15</title>
<g id="a_node17"><a xlink:title="Components [Handle&lt;StandardMaterial&gt;]&#10;">
<polygon fill="#eff1f3" stroke="#eff1f3" points="293,-408.5 16,-408.5 16,-379.5 293,-379.5 293,-408.5"/>
<text text-anchor="middle" x="154.5" y="-390.3" font-family="Times,serif" font-size="14.00">extract_components&lt;Handle&lt;StandardMaterial&gt;&gt;</text>
</a>
</g>
</g>
<!-- schedule_bevy_render::render_component::extract_components&lt;bevy_asset::handle::Handle&lt;bevy_sprite::mesh2d::color_material::ColorMaterial&gt;&gt;_16 -->
<g id="node18" class="node">
<title>schedule_bevy_render::render_component::extract_components&lt;bevy_asset::handle::Handle&lt;bevy_sprite::mesh2d::color_material::ColorMaterial&gt;&gt;_16</title>
<g id="a_node18"><a xlink:title="Components [Handle&lt;ColorMaterial&gt;]&#10;">
<polygon fill="#eff1f3" stroke="#eff1f3" points="284,-375.5 25,-375.5 25,-346.5 284,-346.5 284,-375.5"/>
<text text-anchor="middle" x="154.5" y="-357.3" font-family="Times,serif" font-size="14.00">extract_components&lt;Handle&lt;ColorMaterial&gt;&gt;</text>
</a>
</g>
</g>
<!-- schedule_bevy_render::render_resource::pipeline_cache::PipelineCache::extract_shaders_17 -->
<g id="node19" class="node">
<title>schedule_bevy_render::render_resource::pipeline_cache::PipelineCache::extract_shaders_17</title>
<g id="a_node19"><a xlink:title="Res [Assets&lt;Shader&gt;, Events&lt;AssetEvent&lt;Shader&gt;&gt;]&#10;ResMut [RenderWorld]&#10;">
<polygon fill="#eff1f3" stroke="#eff1f3" points="197,-342.5 112,-342.5 112,-313.5 197,-313.5 197,-342.5"/>
<text text-anchor="middle" x="154.5" y="-324.3" font-family="Times,serif" font-size="14.00">extract_shaders</text>
</a>
</g>
</g>
<!-- schedule_bevy_render::view::extract_msaa_18 -->
<g id="node20" class="node">
<title>schedule_bevy_render::view::extract_msaa_18</title>
<g id="a_node20"><a xlink:title="Res [Msaa]&#10;">
<polygon fill="#eff1f3" stroke="#eff1f3" points="191,-309.5 118,-309.5 118,-280.5 191,-280.5 191,-309.5"/>
<text text-anchor="middle" x="154.5" y="-291.3" font-family="Times,serif" font-size="14.00">extract_msaa</text>
</a>
</g>
</g>
<!-- schedule_bevy_render::view::window::extract_windows_19 -->
<g id="node21" class="node">
<title>schedule_bevy_render::view::window::extract_windows_19</title>
<g id="a_node21"><a xlink:title="Res [Windows]&#10;ResMut [RenderWorld]&#10;">
<polygon fill="#eff1f3" stroke="#eff1f3" points="201,-276.5 108,-276.5 108,-247.5 201,-247.5 201,-276.5"/>
<text text-anchor="middle" x="154.5" y="-258.3" font-family="Times,serif" font-size="14.00">extract_windows</text>
</a>
</g>
</g>
<!-- schedule_bevy_sprite::mesh2d::mesh::extract_mesh2d_20 -->
<g id="node22" class="node">
<title>schedule_bevy_sprite::mesh2d::mesh::extract_mesh2d_20</title>
<g id="a_node22"><a xlink:title="Components [GlobalTransform, ComputedVisibility, Mesh2dHandle]&#10;">
<polygon fill="#eff1f3" stroke="#eff1f3" points="198,-243.5 111,-243.5 111,-214.5 198,-214.5 198,-243.5"/>
<text text-anchor="middle" x="154.5" y="-225.3" font-family="Times,serif" font-size="14.00">extract_mesh2d</text>
</a>
</g>
</g>
<!-- schedule_bevy_sprite::render::extract_sprite_events_21 -->
<g id="node23" class="node">
<title>schedule_bevy_sprite::render::extract_sprite_events_21</title>
<g id="a_node23"><a xlink:title="Res [Events&lt;AssetEvent&lt;Image&gt;&gt;]&#10;ResMut [RenderWorld]&#10;">
<polygon fill="#eff1f3" stroke="#eff1f3" points="212,-210.5 97,-210.5 97,-181.5 212,-181.5 212,-210.5"/>
<text text-anchor="middle" x="154.5" y="-192.3" font-family="Times,serif" font-size="14.00">extract_sprite_events</text>
</a>
</g>
</g>
<!-- schedule_bevy_sprite::render::extract_sprites_22 -->
<g id="node24" class="node">
<title>schedule_bevy_sprite::render::extract_sprites_22</title>
<g id="a_node24"><a xlink:title="Components [GlobalTransform, Visibility, Sprite, Handle&lt;Image&gt;, TextureAtlasSprite, Handle&lt;TextureAtlas&gt;]&#10;Res [Assets&lt;TextureAtlas&gt;]&#10;ResMut [RenderWorld]&#10;">
<polygon fill="#eff1f3" stroke="#eff1f3" points="194,-177.5 115,-177.5 115,-148.5 194,-148.5 194,-177.5"/>
<text text-anchor="middle" x="154.5" y="-159.3" font-family="Times,serif" font-size="14.00">extract_sprites</text>
</a>
</g>
</g>
<!-- schedule_bevy_text::text2d::extract_text2d_sprite_23 -->
<g id="node25" class="node">
<title>schedule_bevy_text::text2d::extract_text2d_sprite_23</title>
<g id="a_node25"><a xlink:title="Components [GlobalTransform, Visibility, Text2dSize, Text]&#10;Res [Windows, Assets&lt;TextureAtlas&gt;, TextPipeline&lt;Entity&gt;]&#10;ResMut [RenderWorld]&#10;">
<polygon fill="#eff1f3" stroke="#eff1f3" points="212,-144.5 97,-144.5 97,-115.5 212,-115.5 212,-144.5"/>
<text text-anchor="middle" x="154.5" y="-126.3" font-family="Times,serif" font-size="14.00">extract_text2d_sprite</text>
</a>
</g>
</g>
<!-- schedule_bevy_sprite::render::extract_sprites_22&#45;&gt;schedule_bevy_text::text2d::extract_text2d_sprite_23 -->
<g id="edge1" class="edge">
<title>schedule_bevy_sprite::render::extract_sprites_22&#45;&gt;schedule_bevy_text::text2d::extract_text2d_sprite_23</title>
<path fill="none" stroke="white" d="M154.5,-148.41C154.5,-148.26 154.5,-148.1 154.5,-147.95"/>
<polygon fill="white" stroke="white" points="158,-154.7 154.5,-144.7 151,-154.7 158,-154.7"/>
</g>
<!-- schedule_bevy_ui::render::camera::extract_ui_camera_phases_24 -->
<g id="node26" class="node">
<title>schedule_bevy_ui::render::camera::extract_ui_camera_phases_24</title>
<g id="a_node26"><a xlink:title="Res [ActiveCamera&lt;CameraUi&gt;]&#10;">
<polygon fill="#eff1f3" stroke="#eff1f3" points="226.5,-111.5 82.5,-111.5 82.5,-82.5 226.5,-82.5 226.5,-111.5"/>
<text text-anchor="middle" x="154.5" y="-93.3" font-family="Times,serif" font-size="14.00">extract_ui_camera_phases</text>
</a>
</g>
</g>
<!-- schedule_bevy_ui::render::extract_text_uinodes_25 -->
<g id="node27" class="node">
<title>schedule_bevy_ui::render::extract_text_uinodes_25</title>
<g id="a_node27"><a xlink:title="Components [GlobalTransform, Visibility, Node, CalculatedClip, Text]&#10;Res [Windows, Assets&lt;TextureAtlas&gt;, TextPipeline&lt;Entity&gt;]&#10;ResMut [RenderWorld]&#10;">
<polygon fill="#eff1f3" stroke="#eff1f3" points="211,-78.5 98,-78.5 98,-49.5 211,-49.5 211,-78.5"/>
<text text-anchor="middle" x="154.5" y="-60.3" font-family="Times,serif" font-size="14.00">extract_text_uinodes</text>
</a>
</g>
</g>
<!-- schedule_bevy_ui::render::extract_uinodes_26 -->
<g id="node28" class="node">
<title>schedule_bevy_ui::render::extract_uinodes_26</title>
<g id="a_node28"><a xlink:title="Components [GlobalTransform, Visibility, Node, CalculatedClip, UiImage, UiColor]&#10;Res [Assets&lt;Image&gt;]&#10;ResMut [RenderWorld]&#10;">
<polygon fill="#eff1f3" stroke="#eff1f3" points="197.5,-45.5 111.5,-45.5 111.5,-16.5 197.5,-16.5 197.5,-45.5"/>
<text text-anchor="middle" x="154.5" y="-27.3" font-family="Times,serif" font-size="14.00">extract_uinodes</text>
</a>
</g>
</g>
<!-- schedule_bevy_ui::render::extract_uinodes_26&#45;&gt;schedule_bevy_ui::render::extract_text_uinodes_25 -->
<g id="edge2" class="edge">
<title>schedule_bevy_ui::render::extract_uinodes_26&#45;&gt;schedule_bevy_ui::render::extract_text_uinodes_25</title>
<path fill="none" stroke="white" d="M154.5,-45.7C154.5,-45.85 154.5,-46.01 154.5,-46.16"/>
<polygon fill="white" stroke="white" points="151,-39.41 154.5,-49.41 158,-39.41 151,-39.41"/>
</g>
<!-- MARKER_schedule_Queue -->
<!-- MARKER_schedule_Prepare&#45;&gt;MARKER_schedule_Queue -->
<g id="edge9" class="edge">
<title>MARKER_schedule_Prepare&#45;&gt;MARKER_schedule_Queue</title>
<path fill="none" stroke="white" d="M546.29,-922C585.12,-922 631.89,-922 671.62,-922"/>
<polygon fill="white" stroke="white" points="671.83,-925.5 681.83,-922 671.83,-918.5 671.83,-925.5"/>
</g>
<!-- schedule_bevy_pbr::render::light::prepare_lights_0 -->
<g id="node30" class="node">
<title>schedule_bevy_pbr::render::light::prepare_lights_0</title>
<g id="a_node30"><a xlink:title="prepare_lights">
<polygon fill="#eff1f3" stroke="#eff1f3" points="504.5,-903.5 426.5,-903.5 426.5,-874.5 504.5,-874.5 504.5,-903.5"/>
<text text-anchor="start" x="426.5" y="-891.3" font-family="Times,serif" font-size="14.00">prepare_lights</text>
<text text-anchor="start" x="426.5" y="-879.7" font-family="Times,serif" font-size="11.00" fill="red">Exclusive at start</text>
</a>
</g>
</g>
<!-- schedule_bevy_core_pipeline::prepare_core_views_system_0 -->
<g id="node31" class="node">
<title>schedule_bevy_core_pipeline::prepare_core_views_system_0</title>
<g id="a_node31"><a xlink:title="Components [ExtractedCamera, ExtractedView]&#10;Res [RenderDevice, Msaa]&#10;ResMut [TextureCache]&#10;">
<polygon fill="#eff1f3" stroke="#eff1f3" points="542.5,-870.5 388.5,-870.5 388.5,-841.5 542.5,-841.5 542.5,-870.5"/>
<text text-anchor="middle" x="465.5" y="-852.3" font-family="Times,serif" font-size="14.00">prepare_core_views_system</text>
</a>
</g>
</g>
<!-- schedule_bevy_egui::render_systems::prepare_egui_transforms_1 -->
<g id="node32" class="node">
<title>schedule_bevy_egui::render_systems::prepare_egui_transforms_1</title>
<g id="a_node32"><a xlink:title="Res [RenderDevice, Arc&lt;Queue&gt;, EguiPipeline, ExtractedEguiSettings, ExtractedWindowSizes]&#10;ResMut [EguiTransforms]&#10;">
<polygon fill="#eff1f3" stroke="#eff1f3" points="533.5,-837.5 397.5,-837.5 397.5,-808.5 533.5,-808.5 533.5,-837.5"/>
<text text-anchor="middle" x="465.5" y="-819.3" font-family="Times,serif" font-size="14.00">prepare_egui_transforms</text>
</a>
</g>
</g>
<!-- schedule_bevy_pbr::render::light::prepare_clusters_2 -->
<g id="node33" class="node">
<title>schedule_bevy_pbr::render::light::prepare_clusters_2</title>
<g id="a_node33"><a xlink:title="Components [ExtractedClustersPointLights, ExtractedClusterConfig]&#10;Res [RenderDevice, Arc&lt;Queue&gt;, MeshPipeline, GlobalLightMeta]&#10;">
<polygon fill="#eff1f3" stroke="#eff1f3" points="510,-804.5 421,-804.5 421,-775.5 510,-775.5 510,-804.5"/>
<text text-anchor="middle" x="465.5" y="-786.3" font-family="Times,serif" font-size="14.00">prepare_clusters</text>
</a>
</g>
</g>
<!-- schedule_bevy_pbr::render::mesh::prepare_skinned_meshes_3 -->
<g id="node34" class="node">
<title>schedule_bevy_pbr::render::mesh::prepare_skinned_meshes_3</title>
<g id="a_node34"><a xlink:title="Res [RenderDevice, Arc&lt;Queue&gt;, ExtractedJoints]&#10;ResMut [SkinnedMeshUniform]&#10;">
<polygon fill="#eff1f3" stroke="#eff1f3" points="534,-771.5 397,-771.5 397,-742.5 534,-742.5 534,-771.5"/>
<text text-anchor="middle" x="465.5" y="-753.3" font-family="Times,serif" font-size="14.00">prepare_skinned_meshes</text>
</a>
</g>
</g>
<!-- schedule_bevy_render::render_asset::prepare_assets&lt;bevy_pbr::pbr_material::StandardMaterial&gt;_4 -->
<g id="node35" class="node">
<title>schedule_bevy_render::render_asset::prepare_assets&lt;bevy_pbr::pbr_material::StandardMaterial&gt;_4</title>
<g id="a_node35"><a xlink:title="Res [RenderDevice, HashMap&lt;Handle&lt;Image&gt;, GpuImage&gt;, MaterialPipeline&lt;StandardMaterial&gt;]&#10;ResMut [ExtractedAssets&lt;StandardMaterial&gt;, HashMap&lt;Handle&lt;StandardMaterial&gt;, GpuStandardMaterial&gt;, PrepareNextFrameAssets&lt;StandardMaterial&gt;]&#10;">
<polygon fill="#eff1f3" stroke="#eff1f3" points="560.5,-738.5 370.5,-738.5 370.5,-709.5 560.5,-709.5 560.5,-738.5"/>
<text text-anchor="middle" x="465.5" y="-720.3" font-family="Times,serif" font-size="14.00">prepare_assets&lt;StandardMaterial&gt;</text>
</a>
</g>
</g>
<!-- schedule_bevy_render::render_asset::prepare_assets&lt;bevy_render::texture::image::Image&gt;_6 -->
<g id="node36" class="node">
<title>schedule_bevy_render::render_asset::prepare_assets&lt;bevy_render::texture::image::Image&gt;_6</title>
<g id="a_node36"><a xlink:title="Res [RenderDevice, Arc&lt;Queue&gt;]&#10;ResMut [ExtractedAssets&lt;Image&gt;, HashMap&lt;Handle&lt;Image&gt;, GpuImage&gt;, PrepareNextFrameAssets&lt;Image&gt;]&#10;">
<polygon fill="#eff1f3" stroke="#eff1f3" points="530.5,-705.5 400.5,-705.5 400.5,-676.5 530.5,-676.5 530.5,-705.5"/>
<text text-anchor="middle" x="465.5" y="-687.3" font-family="Times,serif" font-size="14.00">prepare_assets&lt;Image&gt;</text>
</a>
</g>
</g>
<!-- schedule_bevy_render::render_asset::prepare_assets&lt;bevy_render::texture::image::Image&gt;_6&#45;&gt;schedule_bevy_render::render_asset::prepare_assets&lt;bevy_pbr::pbr_material::StandardMaterial&gt;_4 -->
<g id="edge3" class="edge">
<title>schedule_bevy_render::render_asset::prepare_assets&lt;bevy_render::texture::image::Image&gt;_6&#45;&gt;schedule_bevy_render::render_asset::prepare_assets&lt;bevy_pbr::pbr_material::StandardMaterial&gt;_4</title>
<path fill="none" stroke="white" d="M465.5,-705.7C465.5,-705.85 465.5,-706.01 465.5,-706.16"/>
<polygon fill="white" stroke="white" points="462,-699.41 465.5,-709.41 469,-699.41 462,-699.41"/>
</g>
<!-- schedule_bevy_render::render_asset::prepare_assets&lt;bevy_render::mesh::mesh::Mesh&gt;_5 -->
<g id="node37" class="node">
<title>schedule_bevy_render::render_asset::prepare_assets&lt;bevy_render::mesh::mesh::Mesh&gt;_5</title>
<g id="a_node37"><a xlink:title="Res [RenderDevice]&#10;ResMut [ExtractedAssets&lt;Mesh&gt;, HashMap&lt;Handle&lt;Mesh&gt;, GpuMesh&gt;, PrepareNextFrameAssets&lt;Mesh&gt;]&#10;">
<polygon fill="#eff1f3" stroke="#eff1f3" points="529,-672.5 402,-672.5 402,-643.5 529,-643.5 529,-672.5"/>
<text text-anchor="middle" x="465.5" y="-654.3" font-family="Times,serif" font-size="14.00">prepare_assets&lt;Mesh&gt;</text>
</a>
</g>
</g>
<!-- schedule_bevy_render::render_asset::prepare_assets&lt;bevy_render::texture::image::Image&gt;_6&#45;&gt;schedule_bevy_render::render_asset::prepare_assets&lt;bevy_render::mesh::mesh::Mesh&gt;_5 -->
<g id="edge4" class="edge">
<title>schedule_bevy_render::render_asset::prepare_assets&lt;bevy_render::texture::image::Image&gt;_6&#45;&gt;schedule_bevy_render::render_asset::prepare_assets&lt;bevy_render::mesh::mesh::Mesh&gt;_5</title>
<path fill="none" stroke="white" d="M465.5,-676.41C465.5,-676.26 465.5,-676.1 465.5,-675.95"/>
<polygon fill="white" stroke="white" points="469,-682.7 465.5,-672.7 462,-682.7 469,-682.7"/>
</g>
<!-- schedule_bevy_render::render_asset::prepare_assets&lt;bevy_sprite::mesh2d::color_material::ColorMaterial&gt;_7 -->
<g id="node38" class="node">
<title>schedule_bevy_render::render_asset::prepare_assets&lt;bevy_sprite::mesh2d::color_material::ColorMaterial&gt;_7</title>
<g id="a_node38"><a xlink:title="Res [RenderDevice, HashMap&lt;Handle&lt;Image&gt;, GpuImage&gt;, Material2dPipeline&lt;ColorMaterial&gt;]&#10;ResMut [ExtractedAssets&lt;ColorMaterial&gt;, HashMap&lt;Handle&lt;ColorMaterial&gt;, GpuColorMaterial&gt;, PrepareNextFrameAssets&lt;ColorMaterial&gt;]&#10;">
<polygon fill="#eff1f3" stroke="#eff1f3" points="552,-639.5 379,-639.5 379,-610.5 552,-610.5 552,-639.5"/>
<text text-anchor="middle" x="465.5" y="-621.3" font-family="Times,serif" font-size="14.00">prepare_assets&lt;ColorMaterial&gt;</text>
</a>
</g>
</g>
<!-- schedule_bevy_render::render_asset::prepare_assets&lt;bevy_render::texture::image::Image&gt;_6&#45;&gt;schedule_bevy_render::render_asset::prepare_assets&lt;bevy_sprite::mesh2d::color_material::ColorMaterial&gt;_7 -->
<g id="edge5" class="edge">
<title>schedule_bevy_render::render_asset::prepare_assets&lt;bevy_render::texture::image::Image&gt;_6&#45;&gt;schedule_bevy_render::render_asset::prepare_assets&lt;bevy_sprite::mesh2d::color_material::ColorMaterial&gt;_7</title>
<path fill="none" stroke="white" d="M400.41,-701.26C368.29,-702.3 332.01,-696.62 311,-671 288.74,-643.84 325.41,-632.26 368.6,-627.5"/>
<polygon fill="white" stroke="white" points="369.18,-630.96 378.79,-626.51 368.5,-624 369.18,-630.96"/>
</g>
<!-- schedule_bevy_render::render_component::prepare_uniform_components&lt;bevy_pbr::render::mesh::MeshUniform&gt;_8 -->
<g id="node39" class="node">
<title>schedule_bevy_render::render_component::prepare_uniform_components&lt;bevy_pbr::render::mesh::MeshUniform&gt;_8</title>
<g id="a_node39"><a xlink:title="Components [MeshUniform]&#10;Res [RenderDevice, Arc&lt;Queue&gt;]&#10;ResMut [ComponentUniforms&lt;MeshUniform&gt;]&#10;">
<polygon fill="#eff1f3" stroke="#eff1f3" points="595,-606.5 336,-606.5 336,-577.5 595,-577.5 595,-606.5"/>
<text text-anchor="middle" x="465.5" y="-588.3" font-family="Times,serif" font-size="14.00">prepare_uniform_components&lt;MeshUniform&gt;</text>
</a>
</g>
</g>
<!-- schedule_bevy_render::render_component::prepare_uniform_components&lt;bevy_sprite::mesh2d::mesh::Mesh2dUniform&gt;_9 -->
<g id="node40" class="node">
<title>schedule_bevy_render::render_component::prepare_uniform_components&lt;bevy_sprite::mesh2d::mesh::Mesh2dUniform&gt;_9</title>
<g id="a_node40"><a xlink:title="Components [Mesh2dUniform]&#10;Res [RenderDevice, Arc&lt;Queue&gt;]&#10;ResMut [ComponentUniforms&lt;Mesh2dUniform&gt;]&#10;">
<polygon fill="#eff1f3" stroke="#eff1f3" points="602,-573.5 329,-573.5 329,-544.5 602,-544.5 602,-573.5"/>
<text text-anchor="middle" x="465.5" y="-555.3" font-family="Times,serif" font-size="14.00">prepare_uniform_components&lt;Mesh2dUniform&gt;</text>
</a>
</g>
</g>
<!-- schedule_bevy_render::view::prepare_view_targets_10 -->
<g id="node41" class="node">
<title>schedule_bevy_render::view::prepare_view_targets_10</title>
<g id="a_node41"><a xlink:title="Components [ExtractedCamera]&#10;Res [RenderDevice, ExtractedWindows, HashMap&lt;Handle&lt;Image&gt;, GpuImage&gt;, Msaa]&#10;ResMut [TextureCache]&#10;">
<polygon fill="#eff1f3" stroke="#eff1f3" points="524,-540.5 407,-540.5 407,-511.5 524,-511.5 524,-540.5"/>
<text text-anchor="middle" x="465.5" y="-522.3" font-family="Times,serif" font-size="14.00">prepare_view_targets</text>
</a>
</g>
</g>
<!-- schedule_bevy_render::view::window::prepare_windows_12 -->
<g id="node42" class="node">
<title>schedule_bevy_render::view::window::prepare_windows_12</title>
<g id="a_node42"><a xlink:title="Res [Instance, RenderDevice, NonSendMarker]&#10;ResMut [ExtractedWindows, WindowSurfaces]&#10;">
<polygon fill="#eff1f3" stroke="#eff1f3" points="514,-507.5 417,-507.5 417,-478.5 514,-478.5 514,-507.5"/>
<text text-anchor="middle" x="465.5" y="-489.3" font-family="Times,serif" font-size="14.00">prepare_windows</text>
</a>
</g>
</g>
<!-- schedule_bevy_render::view::window::prepare_windows_12&#45;&gt;schedule_bevy_render::view::prepare_view_targets_10 -->
<g id="edge6" class="edge">
<title>schedule_bevy_render::view::window::prepare_windows_12&#45;&gt;schedule_bevy_render::view::prepare_view_targets_10</title>
<path fill="none" stroke="white" d="M465.5,-507.7C465.5,-507.85 465.5,-508.01 465.5,-508.16"/>
<polygon fill="white" stroke="white" points="462,-501.41 465.5,-511.41 469,-501.41 462,-501.41"/>
</g>
<!-- schedule_bevy_render::view::prepare_view_uniforms_11 -->
<g id="node43" class="node">
<title>schedule_bevy_render::view::prepare_view_uniforms_11</title>
<g id="a_node43"><a xlink:title="Components [ExtractedView]&#10;Res [RenderDevice, Arc&lt;Queue&gt;]&#10;ResMut [ViewUniforms]&#10;">
<polygon fill="#eff1f3" stroke="#eff1f3" points="530.5,-474.5 400.5,-474.5 400.5,-445.5 530.5,-445.5 530.5,-474.5"/>
<text text-anchor="middle" x="465.5" y="-456.3" font-family="Times,serif" font-size="14.00">prepare_view_uniforms</text>
</a>
</g>
</g>
<!-- schedule_bevy_ui::render::prepare_uinodes_13 -->
<g id="node44" class="node">
<title>schedule_bevy_ui::render::prepare_uinodes_13</title>
<g id="a_node44"><a xlink:title="Res [RenderDevice, Arc&lt;Queue&gt;]&#10;ResMut [UiMeta, ExtractedUiNodes]&#10;">
<polygon fill="#eff1f3" stroke="#eff1f3" points="510.5,-441.5 420.5,-441.5 420.5,-412.5 510.5,-412.5 510.5,-441.5"/>
<text text-anchor="middle" x="465.5" y="-423.3" font-family="Times,serif" font-size="14.00">prepare_uinodes</text>
</a>
</g>
</g>
<!-- MARKER_schedule_PhaseSort -->
<!-- MARKER_schedule_Queue&#45;&gt;MARKER_schedule_PhaseSort -->
<g id="edge10" class="edge">
<title>MARKER_schedule_Queue&#45;&gt;MARKER_schedule_PhaseSort</title>
<path fill="none" stroke="white" d="M837.16,-922C863.99,-922 894.48,-922 922.75,-922"/>
<polygon fill="white" stroke="white" points="923.05,-925.5 933.05,-922 923.05,-918.5 923.05,-925.5"/>
</g>
<!-- schedule_bevy_egui::render_systems::queue_bind_groups_0 -->
<g id="node46" class="node">
<title>schedule_bevy_egui::render_systems::queue_bind_groups_0</title>
<g id="a_node46"><a xlink:title="Res [RenderDevice, HashMap&lt;Handle&lt;Image&gt;, GpuImage&gt;, EguiPipeline, ExtractedEguiTextures]&#10;">
<polygon fill="#eff1f3" stroke="#eff1f3" points="813,-903.5 706,-903.5 706,-874.5 813,-874.5 813,-903.5"/>
<text text-anchor="middle" x="759.5" y="-885.3" font-family="Times,serif" font-size="14.00">queue_bind_groups</text>
</a>
</g>
</g>
<!-- schedule_bevy_pbr::material::queue_material_meshes&lt;bevy_pbr::pbr_material::StandardMaterial&gt;_1 -->
<g id="node47" class="node">
<title>schedule_bevy_pbr::material::queue_material_meshes&lt;bevy_pbr::pbr_material::StandardMaterial&gt;_1</title>
<g id="a_node47"><a xlink:title="Components [ExtractedView, Handle&lt;StandardMaterial&gt;, Handle&lt;Mesh&gt;, MeshUniform, VisibleEntities]&#10;ComponentsMut [RenderPhase&lt;Opaque3d&gt;, RenderPhase&lt;AlphaMask3d&gt;, RenderPhase&lt;Transparent3d&gt;]&#10;Res [HashMap&lt;Handle&lt;Mesh&gt;, GpuMesh&gt;, DrawFunctions&lt;Opaque3d&gt;, DrawFunctions&lt;AlphaMask3d&gt;, DrawFunctions&lt;Transparent3d&gt;, HashMap&lt;Handle&lt;StandardMaterial&gt;, GpuStandardMaterial&gt;, MaterialPipeline&lt;StandardMaterial&gt;, Msaa]&#10;ResMut [PipelineCache, SpecializedMeshPipelines&lt;MaterialPipeline&lt;StandardMaterial&gt;&gt;]&#10;">
<polygon fill="#eff1f3" stroke="#eff1f3" points="881,-870.5 638,-870.5 638,-841.5 881,-841.5 881,-870.5"/>
<text text-anchor="middle" x="759.5" y="-852.3" font-family="Times,serif" font-size="14.00">queue_material_meshes&lt;StandardMaterial&gt;</text>
</a>
</g>
</g>
<!-- schedule_bevy_pbr::render::light::queue_shadow_view_bind_group_2 -->
<g id="node48" class="node">
<title>schedule_bevy_pbr::render::light::queue_shadow_view_bind_group_2</title>
<g id="a_node48"><a xlink:title="Res [RenderDevice, ViewUniforms, ShadowPipeline]&#10;ResMut [LightMeta]&#10;">
<polygon fill="#eff1f3" stroke="#eff1f3" points="851,-837.5 668,-837.5 668,-808.5 851,-808.5 851,-837.5"/>
<text text-anchor="middle" x="759.5" y="-819.3" font-family="Times,serif" font-size="14.00">queue_shadow_view_bind_group</text>
</a>
</g>
</g>
<!-- schedule_bevy_pbr::render::light::queue_shadows_3 -->
<g id="node49" class="node">
<title>schedule_bevy_pbr::render::light::queue_shadows_3</title>
<g id="a_node49"><a xlink:title="Components [Handle&lt;Mesh&gt;, ViewLightEntities, CubemapVisibleEntities, VisibleEntities, LightEntity]&#10;ComponentsMut [RenderPhase&lt;Shadow&gt;]&#10;Res [HashMap&lt;Handle&lt;Mesh&gt;, GpuMesh&gt;, ShadowPipeline, DrawFunctions&lt;Shadow&gt;]&#10;ResMut [PipelineCache, SpecializedMeshPipelines&lt;ShadowPipeline&gt;]&#10;">
<polygon fill="#eff1f3" stroke="#eff1f3" points="802.5,-804.5 716.5,-804.5 716.5,-775.5 802.5,-775.5 802.5,-804.5"/>
<text text-anchor="middle" x="759.5" y="-786.3" font-family="Times,serif" font-size="14.00">queue_shadows</text>
</a>
</g>
</g>
<!-- schedule_bevy_pbr::render::mesh::queue_mesh_bind_group_4 -->
<g id="node50" class="node">
<title>schedule_bevy_pbr::render::mesh::queue_mesh_bind_group_4</title>
<g id="a_node50"><a xlink:title="Res [RenderDevice, ComponentUniforms&lt;MeshUniform&gt;, MeshPipeline, SkinnedMeshUniform]&#10;">
<polygon fill="#eff1f3" stroke="#eff1f3" points="828.5,-771.5 690.5,-771.5 690.5,-742.5 828.5,-742.5 828.5,-771.5"/>
<text text-anchor="middle" x="759.5" y="-753.3" font-family="Times,serif" font-size="14.00">queue_mesh_bind_group</text>
</a>
</g>
</g>
<!-- schedule_bevy_pbr::render::mesh::queue_mesh_view_bind_groups_5 -->
<g id="node51" class="node">
<title>schedule_bevy_pbr::render::mesh::queue_mesh_view_bind_groups_5</title>
<g id="a_node51"><a xlink:title="Components [ViewShadowBindings, ViewClusterBindings]&#10;Res [RenderDevice, ViewUniforms, MeshPipeline, ShadowPipeline, LightMeta, GlobalLightMeta]&#10;">
<polygon fill="#eff1f3" stroke="#eff1f3" points="847.5,-738.5 671.5,-738.5 671.5,-709.5 847.5,-709.5 847.5,-738.5"/>
<text text-anchor="middle" x="759.5" y="-720.3" font-family="Times,serif" font-size="14.00">queue_mesh_view_bind_groups</text>
</a>
</g>
</g>
<!-- schedule_bevy_sprite::mesh2d::material::queue_material2d_meshes&lt;bevy_sprite::mesh2d::color_material::ColorMaterial&gt;_6 -->
<g id="node52" class="node">
<title>schedule_bevy_sprite::mesh2d::material::queue_material2d_meshes&lt;bevy_sprite::mesh2d::color_material::ColorMaterial&gt;_6</title>
<g id="a_node52"><a xlink:title="Components [Handle&lt;ColorMaterial&gt;, Mesh2dHandle, Mesh2dUniform, VisibleEntities]&#10;ComponentsMut [RenderPhase&lt;Transparent2d&gt;]&#10;Res [RenderDevice, HashMap&lt;Handle&lt;Mesh&gt;, GpuMesh&gt;, DrawFunctions&lt;Transparent2d&gt;, HashMap&lt;Handle&lt;ColorMaterial&gt;, GpuColorMaterial&gt;, Material2dPipeline&lt;ColorMaterial&gt;, Msaa]&#10;ResMut [PipelineCache, SpecializedMeshPipelines&lt;Material2dPipeline&lt;ColorMaterial&gt;&gt;]&#10;">
<polygon fill="#eff1f3" stroke="#eff1f3" points="879,-705.5 640,-705.5 640,-676.5 879,-676.5 879,-705.5"/>
<text text-anchor="middle" x="759.5" y="-687.3" font-family="Times,serif" font-size="14.00">queue_material2d_meshes&lt;ColorMaterial&gt;</text>
</a>
</g>
</g>
<!-- schedule_bevy_sprite::mesh2d::mesh::queue_mesh2d_bind_group_7 -->
<g id="node53" class="node">
<title>schedule_bevy_sprite::mesh2d::mesh::queue_mesh2d_bind_group_7</title>
<g id="a_node53"><a xlink:title="Res [RenderDevice, ComponentUniforms&lt;Mesh2dUniform&gt;, Mesh2dPipeline]&#10;">
<polygon fill="#eff1f3" stroke="#eff1f3" points="835,-672.5 684,-672.5 684,-643.5 835,-643.5 835,-672.5"/>
<text text-anchor="middle" x="759.5" y="-654.3" font-family="Times,serif" font-size="14.00">queue_mesh2d_bind_group</text>
</a>
</g>
</g>
<!-- schedule_bevy_sprite::mesh2d::mesh::queue_mesh2d_view_bind_groups_8 -->
<g id="node54" class="node">
<title>schedule_bevy_sprite::mesh2d::mesh::queue_mesh2d_view_bind_groups_8</title>
<g id="a_node54"><a xlink:title="Res [RenderDevice, ViewUniforms, Mesh2dPipeline]&#10;">
<polygon fill="#eff1f3" stroke="#eff1f3" points="854.5,-639.5 664.5,-639.5 664.5,-610.5 854.5,-610.5 854.5,-639.5"/>
<text text-anchor="middle" x="759.5" y="-621.3" font-family="Times,serif" font-size="14.00">queue_mesh2d_view_bind_groups</text>
</a>
</g>
</g>
<!-- schedule_bevy_sprite::render::queue_sprites_9 -->
<g id="node55" class="node">
<title>schedule_bevy_sprite::render::queue_sprites_9</title>
<g id="a_node55"><a xlink:title="ComponentsMut [RenderPhase&lt;Transparent2d&gt;]&#10;Res [RenderDevice, Arc&lt;Queue&gt;, ViewUniforms, HashMap&lt;Handle&lt;Image&gt;, GpuImage&gt;, DrawFunctions&lt;Transparent2d&gt;, SpritePipeline, SpriteAssetEvents, Msaa]&#10;ResMut [PipelineCache, ImageBindGroups, SpecializedRenderPipelines&lt;SpritePipeline&gt;, SpriteMeta, ExtractedSprites]&#10;">
<polygon fill="#eff1f3" stroke="#eff1f3" points="797,-606.5 722,-606.5 722,-577.5 797,-577.5 797,-606.5"/>
<text text-anchor="middle" x="759.5" y="-588.3" font-family="Times,serif" font-size="14.00">queue_sprites</text>
</a>
</g>
</g>
<!-- schedule_bevy_ui::render::queue_uinodes_10 -->
<g id="node56" class="node">
<title>schedule_bevy_ui::render::queue_uinodes_10</title>
<g id="a_node56"><a xlink:title="Components [UiBatch]&#10;ComponentsMut [RenderPhase&lt;TransparentUi&gt;]&#10;Res [RenderDevice, ViewUniforms, HashMap&lt;Handle&lt;Image&gt;, GpuImage&gt;, SpriteAssetEvents, UiPipeline, DrawFunctions&lt;TransparentUi&gt;]&#10;ResMut [PipelineCache, SpecializedRenderPipelines&lt;UiPipeline&gt;, UiImageBindGroups, UiMeta]&#10;">
<polygon fill="#eff1f3" stroke="#eff1f3" points="800.5,-573.5 718.5,-573.5 718.5,-544.5 800.5,-544.5 800.5,-573.5"/>
<text text-anchor="middle" x="759.5" y="-555.3" font-family="Times,serif" font-size="14.00">queue_uinodes</text>
</a>
</g>
</g>
<!-- MARKER_schedule_Render -->
<!-- MARKER_schedule_PhaseSort&#45;&gt;MARKER_schedule_Render -->
<g id="edge11" class="edge">
<title>MARKER_schedule_PhaseSort&#45;&gt;MARKER_schedule_Render</title>
<path fill="none" stroke="white" d="M1107.53,-922C1123.96,-922 1141.2,-922 1157.72,-922"/>
<polygon fill="white" stroke="white" points="1157.9,-925.5 1167.9,-922 1157.9,-918.5 1157.9,-925.5"/>
</g>
<!-- schedule_bevy_render::render_phase::batch_phase_system&lt;bevy_core_pipeline::Transparent2d&gt;_0 -->
<g id="node58" class="node">
<title>schedule_bevy_render::render_phase::batch_phase_system&lt;bevy_core_pipeline::Transparent2d&gt;_0</title>
<g id="a_node58"><a xlink:title="ComponentsMut [RenderPhase&lt;Transparent2d&gt;]&#10;">
<polygon fill="#eff1f3" stroke="#eff1f3" points="1124,-903.5 917,-903.5 917,-874.5 1124,-874.5 1124,-903.5"/>
<text text-anchor="middle" x="1020.5" y="-885.3" font-family="Times,serif" font-size="14.00">batch_phase_system&lt;Transparent2d&gt;</text>
</a>
</g>
</g>
<!-- schedule_bevy_render::render_phase::sort_phase_system&lt;bevy_core_pipeline::Transparent2d&gt;_3 -->
<g id="node59" class="node">
<title>schedule_bevy_render::render_phase::sort_phase_system&lt;bevy_core_pipeline::Transparent2d&gt;_3</title>
<g id="a_node59"><a xlink:title="ComponentsMut [RenderPhase&lt;Transparent2d&gt;]&#10;">
<polygon fill="#eff1f3" stroke="#eff1f3" points="1119.5,-870.5 921.5,-870.5 921.5,-841.5 1119.5,-841.5 1119.5,-870.5"/>
<text text-anchor="middle" x="1020.5" y="-852.3" font-family="Times,serif" font-size="14.00">sort_phase_system&lt;Transparent2d&gt;</text>
</a>
</g>
</g>
<!-- schedule_bevy_render::render_phase::sort_phase_system&lt;bevy_core_pipeline::Transparent2d&gt;_3&#45;&gt;schedule_bevy_render::render_phase::batch_phase_system&lt;bevy_core_pipeline::Transparent2d&gt;_0 -->
<g id="edge7" class="edge">
<title>schedule_bevy_render::render_phase::sort_phase_system&lt;bevy_core_pipeline::Transparent2d&gt;_3&#45;&gt;schedule_bevy_render::render_phase::batch_phase_system&lt;bevy_core_pipeline::Transparent2d&gt;_0</title>
<path fill="none" stroke="white" d="M1020.5,-870.7C1020.5,-870.85 1020.5,-871.01 1020.5,-871.16"/>
<polygon fill="white" stroke="white" points="1017,-864.41 1020.5,-874.41 1024,-864.41 1017,-864.41"/>
</g>
<!-- schedule_bevy_render::render_phase::sort_phase_system&lt;bevy_core_pipeline::AlphaMask3d&gt;_1 -->
<g id="node60" class="node">
<title>schedule_bevy_render::render_phase::sort_phase_system&lt;bevy_core_pipeline::AlphaMask3d&gt;_1</title>
<g id="a_node60"><a xlink:title="ComponentsMut [RenderPhase&lt;AlphaMask3d&gt;]&#10;">
<polygon fill="#eff1f3" stroke="#eff1f3" points="1119,-837.5 922,-837.5 922,-808.5 1119,-808.5 1119,-837.5"/>
<text text-anchor="middle" x="1020.5" y="-819.3" font-family="Times,serif" font-size="14.00">sort_phase_system&lt;AlphaMask3d&gt;</text>
</a>
</g>
</g>
<!-- schedule_bevy_render::render_phase::sort_phase_system&lt;bevy_core_pipeline::Opaque3d&gt;_2 -->
<g id="node61" class="node">
<title>schedule_bevy_render::render_phase::sort_phase_system&lt;bevy_core_pipeline::Opaque3d&gt;_2</title>
<g id="a_node61"><a xlink:title="ComponentsMut [RenderPhase&lt;Opaque3d&gt;]&#10;">
<polygon fill="#eff1f3" stroke="#eff1f3" points="1108,-804.5 933,-804.5 933,-775.5 1108,-775.5 1108,-804.5"/>
<text text-anchor="middle" x="1020.5" y="-786.3" font-family="Times,serif" font-size="14.00">sort_phase_system&lt;Opaque3d&gt;</text>
</a>
</g>
</g>
<!-- schedule_bevy_render::render_phase::sort_phase_system&lt;bevy_core_pipeline::Transparent3d&gt;_4 -->
<g id="node62" class="node">
<title>schedule_bevy_render::render_phase::sort_phase_system&lt;bevy_core_pipeline::Transparent3d&gt;_4</title>
<g id="a_node62"><a xlink:title="ComponentsMut [RenderPhase&lt;Transparent3d&gt;]&#10;">
<polygon fill="#eff1f3" stroke="#eff1f3" points="1119.5,-771.5 921.5,-771.5 921.5,-742.5 1119.5,-742.5 1119.5,-771.5"/>
<text text-anchor="middle" x="1020.5" y="-753.3" font-family="Times,serif" font-size="14.00">sort_phase_system&lt;Transparent3d&gt;</text>
</a>
</g>
</g>
<!-- schedule_bevy_render::render_phase::sort_phase_system&lt;bevy_pbr::render::light::Shadow&gt;_5 -->
<g id="node63" class="node">
<title>schedule_bevy_render::render_phase::sort_phase_system&lt;bevy_pbr::render::light::Shadow&gt;_5</title>
<g id="a_node63"><a xlink:title="ComponentsMut [RenderPhase&lt;Shadow&gt;]&#10;">
<polygon fill="#eff1f3" stroke="#eff1f3" points="1102,-738.5 939,-738.5 939,-709.5 1102,-709.5 1102,-738.5"/>
<text text-anchor="middle" x="1020.5" y="-720.3" font-family="Times,serif" font-size="14.00">sort_phase_system&lt;Shadow&gt;</text>
</a>
</g>
</g>
<!-- schedule_bevy_render::render_phase::sort_phase_system&lt;bevy_ui::render::render_pass::TransparentUi&gt;_6 -->
<g id="node64" class="node">
<title>schedule_bevy_render::render_phase::sort_phase_system&lt;bevy_ui::render::render_pass::TransparentUi&gt;_6</title>
<g id="a_node64"><a xlink:title="ComponentsMut [RenderPhase&lt;TransparentUi&gt;]&#10;">
<polygon fill="#eff1f3" stroke="#eff1f3" points="1119.5,-705.5 921.5,-705.5 921.5,-676.5 1119.5,-676.5 1119.5,-705.5"/>
<text text-anchor="middle" x="1020.5" y="-687.3" font-family="Times,serif" font-size="14.00">sort_phase_system&lt;TransparentUi&gt;</text>
</a>
</g>
</g>
<!-- MARKER_schedule_Cleanup -->
<!-- MARKER_schedule_Render&#45;&gt;MARKER_schedule_Cleanup -->
<g id="edge12" class="edge">
<title>MARKER_schedule_Render&#45;&gt;MARKER_schedule_Cleanup</title>
<path fill="none" stroke="white" d="M1327.08,-922C1338.08,-922 1349.46,-922 1360.68,-922"/>
<polygon fill="white" stroke="white" points="1360.92,-925.5 1370.92,-922 1360.92,-918.5 1360.92,-925.5"/>
</g>
<!-- schedule_bevy_render::render_resource::pipeline_cache::PipelineCache::process_pipeline_queue_system_0 -->
<g id="node66" class="node">
<title>schedule_bevy_render::render_resource::pipeline_cache::PipelineCache::process_pipeline_queue_system_0</title>
<g id="a_node66"><a xlink:title="ResMut [PipelineCache]&#10;">
<polygon fill="#eff1f3" stroke="#eff1f3" points="1335,-903.5 1160,-903.5 1160,-874.5 1335,-874.5 1335,-903.5"/>
<text text-anchor="middle" x="1247.5" y="-885.3" font-family="Times,serif" font-size="14.00">process_pipeline_queue_system</text>
</a>
</g>
</g>
<!-- schedule_bevy_render::renderer::render_system_0 -->
<g id="node67" class="node">
<title>schedule_bevy_render::renderer::render_system_0</title>
<g id="a_node67"><a xlink:title="render_system">
<polygon fill="#eff1f3" stroke="#eff1f3" points="1287.5,-870.5 1207.5,-870.5 1207.5,-841.5 1287.5,-841.5 1287.5,-870.5"/>
<text text-anchor="start" x="1207.5" y="-858.3" font-family="Times,serif" font-size="14.00">render_system</text>
<text text-anchor="start" x="1210.5" y="-846.7" font-family="Times,serif" font-size="11.00" fill="red">Exclusive at end</text>
</a>
</g>
</g>
<!-- schedule_bevy_render::texture::texture_cache::update_texture_cache_system_0 -->
<g id="node69" class="node">
<title>schedule_bevy_render::texture::texture_cache::update_texture_cache_system_0</title>
<g id="a_node69"><a xlink:title="ResMut [TextureCache]&#10;">
<polygon fill="#eff1f3" stroke="#eff1f3" points="1535,-903.5 1372,-903.5 1372,-874.5 1535,-874.5 1535,-903.5"/>
<text text-anchor="middle" x="1453.5" y="-885.3" font-family="Times,serif" font-size="14.00">update_texture_cache_system</text>
</a>
</g>
</g>
</g>
</svg>
