<?xml version="1.0" encoding="UTF-8" standalone="no"?>
<!DOCTYPE svg PUBLIC "-//W3C//DTD SVG 1.1//EN"
 "http://www.w3.org/Graphics/SVG/1.1/DTD/svg11.dtd">
<!-- Generated by graphviz version 3.0.0 (20220226.1711)
 -->
<!-- Title: RenderGraph Pages: 1 -->
<svg width="830pt" height="566pt"
 viewBox="0.00 0.00 830.00 566.00" xmlns="http://www.w3.org/2000/svg" xmlns:xlink="http://www.w3.org/1999/xlink">
<g id="graph0" class="graph" transform="scale(1 1) rotate(0) translate(4 562)">
<title>RenderGraph</title>
<polygon fill="#35393f" stroke="transparent" points="-4,4 -4,-562 826,-562 826,4 -4,4"/>
<g id="clust2" class="cluster">
<title>clusterdraw_2d</title>
<path fill="#5e6570" stroke="#5e6570" d="M20,-97C20,-97 458.5,-97 458.5,-97 464.5,-97 470.5,-103 470.5,-109 470.5,-109 470.5,-190 470.5,-190 470.5,-196 464.5,-202 458.5,-202 458.5,-202 20,-202 20,-202 14,-202 8,-196 8,-190 8,-190 8,-109 8,-109 8,-103 14,-97 20,-97"/>
<text text-anchor="middle" x="239.25" y="-186.8" font-family="Times,serif" font-size="14.00">draw_2d</text>
</g>
<g id="clust1" class="cluster">
<title>clusterclear</title>
<path fill="#5e6570" stroke="#5e6570" d="M99,-8C99,-8 187,-8 187,-8 193,-8 199,-14 199,-20 199,-20 199,-77 199,-77 199,-83 193,-89 187,-89 187,-89 99,-89 99,-89 93,-89 87,-83 87,-77 87,-77 87,-20 87,-20 87,-14 93,-8 99,-8"/>
<text text-anchor="middle" x="143" y="-73.8" font-family="Times,serif" font-size="14.00">clear</text>
</g>
<g id="clust3" class="cluster">
<title>clusterdraw_3d</title>
<path fill="#5e6570" stroke="#5e6570" d="M20,-210C20,-210 654.5,-210 654.5,-210 660.5,-210 666.5,-216 666.5,-222 666.5,-222 666.5,-323 666.5,-323 666.5,-329 660.5,-335 654.5,-335 654.5,-335 20,-335 20,-335 14,-335 8,-329 8,-323 8,-323 8,-222 8,-222 8,-216 14,-210 20,-210"/>
<text text-anchor="middle" x="337.25" y="-319.8" font-family="Times,serif" font-size="14.00">draw_3d</text>
</g>
<g id="clust4" class="cluster">
<title>clusterdraw_ui</title>
<path fill="#5e6570" stroke="#5e6570" d="M20,-343C20,-343 458.5,-343 458.5,-343 464.5,-343 470.5,-349 470.5,-355 470.5,-355 470.5,-436 470.5,-436 470.5,-442 464.5,-448 458.5,-448 458.5,-448 20,-448 20,-448 14,-448 8,-442 8,-436 8,-436 8,-355 8,-355 8,-349 14,-343 20,-343"/>
<text text-anchor="middle" x="239.25" y="-432.8" font-family="Times,serif" font-size="14.00">draw_ui</text>
</g>
<!-- clearclear_pass -->
<g id="node1" class="node">
<title>clearclear_pass</title>
<text text-anchor="start" x="110" y="-38.8" font-family="Helvetica,sans-Serif" font-size="14.00" fill="white">clear_pass</text>
<text text-anchor="start" x="108" y="-28" font-family="Helvetica,sans-Serif" font-size="10.00" fill="red">ClearPassNode</text>
<path fill="none" stroke="#99aab5" d="M114.33,-20C114.33,-20 171.67,-20 171.67,-20 177.33,-20 183,-25.67 183,-31.33 183,-31.33 183,-42.67 183,-42.67 183,-48.33 177.33,-54 171.67,-54 171.67,-54 114.33,-54 114.33,-54 108.67,-54 103,-48.33 103,-42.67 103,-42.67 103,-31.33 103,-31.33 103,-25.67 108.67,-20 114.33,-20"/>
</g>
<!-- draw_2dmain_pass -->
<g id="node2" class="node">
<title>draw_2dmain_pass</title>
<text text-anchor="start" x="376" y="-150.8" font-family="Helvetica,sans-Serif" font-size="14.00" fill="white">main_pass</text>
<text text-anchor="start" x="370.5" y="-140" font-family="Helvetica,sans-Serif" font-size="10.00" fill="red">MainPass2dNode</text>
<polygon fill="none" stroke="#99aab5" points="367,-112 367,-133 442,-133 442,-112 367,-112"/>
<text text-anchor="start" x="370" y="-118.8" font-family="Helvetica,sans-Serif" font-size="14.00" fill="white">view: Entity</text>
<text text-anchor="start" x="446" y="-118.8" font-family="Helvetica,sans-Serif" font-size="14.00" fill="white"> </text>
<path fill="none" stroke="#99aab5" d="M375.5,-109.5C375.5,-109.5 442.5,-109.5 442.5,-109.5 448.5,-109.5 454.5,-115.5 454.5,-121.5 454.5,-121.5 454.5,-154.5 454.5,-154.5 454.5,-160.5 448.5,-166.5 442.5,-166.5 442.5,-166.5 375.5,-166.5 375.5,-166.5 369.5,-166.5 363.5,-160.5 363.5,-154.5 363.5,-154.5 363.5,-121.5 363.5,-121.5 363.5,-115.5 369.5,-109.5 375.5,-109.5"/>
</g>
<!-- draw_2dGraphInputNode -->
<g id="node3" class="node">
<title>draw_2dGraphInputNode</title>
<text text-anchor="start" x="92.5" y="-150.8" font-family="Helvetica,sans-Serif" font-size="14.00" fill="white">GraphInputNode</text>
<text text-anchor="start" x="107" y="-140" font-family="Helvetica,sans-Serif" font-size="10.00" fill="red">GraphInputNode</text>
<polygon fill="none" stroke="#99aab5" points="27,-112 27,-133 142,-133 142,-112 27,-112"/>
<text text-anchor="start" x="30" y="-118.8" font-family="Helvetica,sans-Serif" font-size="14.00" fill="white">view_entity: Entity</text>
<polygon fill="none" stroke="#99aab5" points="144,-112 144,-133 259,-133 259,-112 144,-112"/>
<text text-anchor="start" x="147" y="-118.8" font-family="Helvetica,sans-Serif" font-size="14.00" fill="white">view_entity: Entity</text>
<path fill="none" stroke="#99aab5" d="M36,-109.5C36,-109.5 250,-109.5 250,-109.5 256,-109.5 262,-115.5 262,-121.5 262,-121.5 262,-154.5 262,-154.5 262,-160.5 256,-166.5 250,-166.5 250,-166.5 36,-166.5 36,-166.5 30,-166.5 24,-160.5 24,-154.5 24,-154.5 24,-121.5 24,-121.5 24,-115.5 30,-109.5 36,-109.5"/>
</g>
<!-- draw_2dGraphInputNode&#45;&gt;draw_2dmain_pass -->
<g id="edge1" class="edge">
<title>draw_2dGraphInputNode:e&#45;&gt;draw_2dmain_pass:w</title>
<path fill="none" stroke="white" d="M260,-122C303.43,-122 316.83,-122 355.57,-122"/>
<polygon fill="white" stroke="white" points="356,-125.5 366,-122 356,-118.5 356,-125.5"/>
</g>
<!-- draw_3dmain_pass -->
<g id="node4" class="node">
<title>draw_3dmain_pass</title>
<text text-anchor="start" x="572" y="-273.8" font-family="Helvetica,sans-Serif" font-size="14.00" fill="white">main_pass</text>
<text text-anchor="start" x="566.5" y="-263" font-family="Helvetica,sans-Serif" font-size="10.00" fill="red">MainPass3dNode</text>
<polygon fill="none" stroke="#99aab5" points="563,-235 563,-256 638,-256 638,-235 563,-235"/>
<text text-anchor="start" x="566" y="-241.8" font-family="Helvetica,sans-Serif" font-size="14.00" fill="white">view: Entity</text>
<text text-anchor="start" x="642" y="-241.8" font-family="Helvetica,sans-Serif" font-size="14.00" fill="white"> </text>
<path fill="none" stroke="#99aab5" d="M571.5,-232.5C571.5,-232.5 638.5,-232.5 638.5,-232.5 644.5,-232.5 650.5,-238.5 650.5,-244.5 650.5,-244.5 650.5,-277.5 650.5,-277.5 650.5,-283.5 644.5,-289.5 638.5,-289.5 638.5,-289.5 571.5,-289.5 571.5,-289.5 565.5,-289.5 559.5,-283.5 559.5,-277.5 559.5,-277.5 559.5,-244.5 559.5,-244.5 559.5,-238.5 565.5,-232.5 571.5,-232.5"/>
</g>
<!-- draw_3dshadow_pass -->
<g id="node5" class="node">
<title>draw_3dshadow_pass</title>
<text text-anchor="start" x="368" y="-283.8" font-family="Helvetica,sans-Serif" font-size="14.00" fill="white">shadow_pass</text>
<text text-anchor="start" x="368.5" y="-273" font-family="Helvetica,sans-Serif" font-size="10.00" fill="red">ShadowPassNode</text>
<polygon fill="none" stroke="#99aab5" points="365,-245 365,-266 442,-266 442,-245 365,-245"/>
<text text-anchor="start" x="369" y="-251.8" font-family="Helvetica,sans-Serif" font-size="14.00" fill="white">view: Entity</text>
<text text-anchor="start" x="447" y="-251.8" font-family="Helvetica,sans-Serif" font-size="14.00" fill="white"> </text>
<path fill="none" stroke="#99aab5" d="M373.5,-242.5C373.5,-242.5 444.5,-242.5 444.5,-242.5 450.5,-242.5 456.5,-248.5 456.5,-254.5 456.5,-254.5 456.5,-287.5 456.5,-287.5 456.5,-293.5 450.5,-299.5 444.5,-299.5 444.5,-299.5 373.5,-299.5 373.5,-299.5 367.5,-299.5 361.5,-293.5 361.5,-287.5 361.5,-287.5 361.5,-254.5 361.5,-254.5 361.5,-248.5 367.5,-242.5 373.5,-242.5"/>
</g>
<!-- draw_3dshadow_pass&#45;&gt;draw_3dmain_pass -->
<g id="edge3" class="edge">
<title>draw_3dshadow_pass:e&#45;&gt;draw_3dmain_pass:w</title>
<path fill="none" stroke="white" d="M455,-282C499.22,-282 512.33,-273.43 551.94,-272.16"/>
<polygon fill="white" stroke="white" points="552.06,-275.66 562,-272 551.95,-268.66 552.06,-275.66"/>
</g>
<!-- draw_3dGraphInputNode -->
<g id="node6" class="node">
<title>draw_3dGraphInputNode</title>
<text text-anchor="start" x="92.5" y="-273.8" font-family="Helvetica,sans-Serif" font-size="14.00" fill="white">GraphInputNode</text>
<text text-anchor="start" x="107" y="-263" font-family="Helvetica,sans-Serif" font-size="10.00" fill="red">GraphInputNode</text>
<polygon fill="none" stroke="#99aab5" points="27,-235 27,-256 142,-256 142,-235 27,-235"/>
<text text-anchor="start" x="30" y="-241.8" font-family="Helvetica,sans-Serif" font-size="14.00" fill="white">view_entity: Entity</text>
<polygon fill="none" stroke="#99aab5" points="144,-235 144,-256 259,-256 259,-235 144,-235"/>
<text text-anchor="start" x="147" y="-241.8" font-family="Helvetica,sans-Serif" font-size="14.00" fill="white">view_entity: Entity</text>
<path fill="none" stroke="#99aab5" d="M36,-232.5C36,-232.5 250,-232.5 250,-232.5 256,-232.5 262,-238.5 262,-244.5 262,-244.5 262,-277.5 262,-277.5 262,-283.5 256,-289.5 250,-289.5 250,-289.5 36,-289.5 36,-289.5 30,-289.5 24,-283.5 24,-277.5 24,-277.5 24,-244.5 24,-244.5 24,-238.5 30,-232.5 36,-232.5"/>
</g>
<!-- draw_3dGraphInputNode&#45;&gt;draw_3dmain_pass -->
<g id="edge2" class="edge">
<title>draw_3dGraphInputNode:e&#45;&gt;draw_3dmain_pass:w</title>
<path fill="none" stroke="white" d="M260,-245C297.13,-245 305.04,-232.57 342,-229 401.28,-223.27 416.7,-223.53 476,-229 511.08,-232.24 521.28,-242.75 551.82,-244.69"/>
<polygon fill="white" stroke="white" points="551.9,-248.19 562,-245 552.11,-241.2 551.9,-248.19"/>
</g>
<!-- draw_3dGraphInputNode&#45;&gt;draw_3dshadow_pass -->
<g id="edge4" class="edge">
<title>draw_3dGraphInputNode:e&#45;&gt;draw_3dshadow_pass:w</title>
<path fill="none" stroke="white" d="M260,-245C302.81,-245 315.61,-253.5 353.73,-254.83"/>
<polygon fill="white" stroke="white" points="353.94,-258.33 364,-255 354.06,-251.33 353.94,-258.33"/>
</g>
<!-- draw_uiGraphInputNode -->
<g id="node7" class="node">
<title>draw_uiGraphInputNode</title>
<text text-anchor="start" x="92.5" y="-396.8" font-family="Helvetica,sans-Serif" font-size="14.00" fill="white">GraphInputNode</text>
<text text-anchor="start" x="107" y="-386" font-family="Helvetica,sans-Serif" font-size="10.00" fill="red">GraphInputNode</text>
<polygon fill="none" stroke="#99aab5" points="27,-358 27,-379 142,-379 142,-358 27,-358"/>
<text text-anchor="start" x="30" y="-364.8" font-family="Helvetica,sans-Serif" font-size="14.00" fill="white">view_entity: Entity</text>
<polygon fill="none" stroke="#99aab5" points="144,-358 144,-379 259,-379 259,-358 144,-358"/>
<text text-anchor="start" x="147" y="-364.8" font-family="Helvetica,sans-Serif" font-size="14.00" fill="white">view_entity: Entity</text>
<path fill="none" stroke="#99aab5" d="M36,-355.5C36,-355.5 250,-355.5 250,-355.5 256,-355.5 262,-361.5 262,-367.5 262,-367.5 262,-400.5 262,-400.5 262,-406.5 256,-412.5 250,-412.5 250,-412.5 36,-412.5 36,-412.5 30,-412.5 24,-406.5 24,-400.5 24,-400.5 24,-367.5 24,-367.5 24,-361.5 30,-355.5 36,-355.5"/>
</g>
<!-- draw_uiui_pass -->
<g id="node8" class="node">
<title>draw_uiui_pass</title>
<text text-anchor="start" x="386" y="-396.8" font-family="Helvetica,sans-Serif" font-size="14.00" fill="white">ui_pass</text>
<text text-anchor="start" x="381.5" y="-386" font-family="Helvetica,sans-Serif" font-size="10.00" fill="red">UiPassNode</text>
<polygon fill="none" stroke="#99aab5" points="367,-358 367,-379 442,-379 442,-358 367,-358"/>
<text text-anchor="start" x="370" y="-364.8" font-family="Helvetica,sans-Serif" font-size="14.00" fill="white">view: Entity</text>
<text text-anchor="start" x="446" y="-364.8" font-family="Helvetica,sans-Serif" font-size="14.00" fill="white"> </text>
<path fill="none" stroke="#99aab5" d="M375.5,-355.5C375.5,-355.5 442.5,-355.5 442.5,-355.5 448.5,-355.5 454.5,-361.5 454.5,-367.5 454.5,-367.5 454.5,-400.5 454.5,-400.5 454.5,-406.5 448.5,-412.5 442.5,-412.5 442.5,-412.5 375.5,-412.5 375.5,-412.5 369.5,-412.5 363.5,-406.5 363.5,-400.5 363.5,-400.5 363.5,-367.5 363.5,-367.5 363.5,-361.5 369.5,-355.5 375.5,-355.5"/>
</g>
<!-- draw_uiGraphInputNode&#45;&gt;draw_uiui_pass -->
<g id="edge5" class="edge">
<title>draw_uiGraphInputNode:e&#45;&gt;draw_uiui_pass:w</title>
<path fill="none" stroke="white" d="M260,-368C303.43,-368 316.83,-368 355.57,-368"/>
<polygon fill="white" stroke="white" points="356,-371.5 366,-368 356,-364.5 356,-371.5"/>
</g>
<!-- clear_pass_driver -->
<g id="node9" class="node">
<title>clear_pass_driver</title>
<text text-anchor="start" x="89.5" y="-538.8" font-family="Helvetica,sans-Serif" font-size="14.00" fill="white">clear_pass_driver</text>
<text text-anchor="start" x="95" y="-528" font-family="Helvetica,sans-Serif" font-size="10.00" fill="red">ClearPassDriverNode</text>
<path fill="none" stroke="#99aab5" d="M95.33,-520C95.33,-520 190.67,-520 190.67,-520 196.33,-520 202,-525.67 202,-531.33 202,-531.33 202,-542.67 202,-542.67 202,-548.33 196.33,-554 190.67,-554 190.67,-554 95.33,-554 95.33,-554 89.67,-554 84,-548.33 84,-542.67 84,-542.67 84,-531.33 84,-531.33 84,-525.67 89.67,-520 95.33,-520"/>
</g>
<!-- main_pass_driver -->
<g id="node10" class="node">
<title>main_pass_driver</title>
<text text-anchor="start" x="355" y="-508.8" font-family="Helvetica,sans-Serif" font-size="14.00" fill="white">main_pass_driver</text>
<text text-anchor="start" x="362" y="-498" font-family="Helvetica,sans-Serif" font-size="10.00" fill="red">MainPassDriverNode</text>
<path fill="none" stroke="#99aab5" d="M361.33,-490C361.33,-490 456.67,-490 456.67,-490 462.33,-490 468,-495.67 468,-501.33 468,-501.33 468,-512.67 468,-512.67 468,-518.33 462.33,-524 456.67,-524 456.67,-524 361.33,-524 361.33,-524 355.67,-524 350,-518.33 350,-512.67 350,-512.67 350,-501.33 350,-501.33 350,-495.67 355.67,-490 361.33,-490"/>
</g>
<!-- clear_pass_driver&#45;&gt;main_pass_driver -->
<g id="edge7" class="edge">
<title>clear_pass_driver:e&#45;&gt;main_pass_driver:w</title>
<path fill="none" stroke="white" d="M200,-537C265.36,-537 281.55,-509.97 341.92,-507.22"/>
<polygon fill="white" stroke="white" points="342.08,-510.72 352,-507 341.92,-503.72 342.08,-510.72"/>
</g>
<!-- egui_pass -->
<g id="node11" class="node">
<title>egui_pass</title>
<text text-anchor="start" x="747" y="-507.8" font-family="Helvetica,sans-Serif" font-size="14.00" fill="white">egui_pass</text>
<text text-anchor="start" x="756.5" y="-497" font-family="Helvetica,sans-Serif" font-size="10.00" fill="red">EguiNode</text>
<path fill="none" stroke="#99aab5" d="M753.33,-489C753.33,-489 802.67,-489 802.67,-489 808.33,-489 814,-494.67 814,-500.33 814,-500.33 814,-511.67 814,-511.67 814,-517.33 808.33,-523 802.67,-523 802.67,-523 753.33,-523 753.33,-523 747.67,-523 742,-517.33 742,-511.67 742,-511.67 742,-500.33 742,-500.33 742,-494.67 747.67,-489 753.33,-489"/>
</g>
<!-- main_pass_driver&#45;&gt;egui_pass -->
<g id="edge8" class="edge">
<title>main_pass_driver:e&#45;&gt;egui_pass:w</title>
<path fill="none" stroke="white" d="M466,-507C502.51,-507 511.5,-510.89 548,-512 600.64,-513.6 613.87,-514.03 666.5,-512 697.38,-510.81 707.38,-506.95 733.88,-506.15"/>
<polygon fill="white" stroke="white" points="734.05,-509.64 744,-506 733.95,-502.65 734.05,-509.64"/>
</g>
<!-- ui_pass_driver -->
<g id="node13" class="node">
<title>ui_pass_driver</title>
<text text-anchor="start" x="561" y="-483.8" font-family="Helvetica,sans-Serif" font-size="14.00" fill="white">ui_pass_driver</text>
<text text-anchor="start" x="564" y="-473" font-family="Helvetica,sans-Serif" font-size="10.00" fill="red">UiPassDriverNode</text>
<path fill="none" stroke="#99aab5" d="M567.33,-465C567.33,-465 642.67,-465 642.67,-465 648.33,-465 654,-470.67 654,-476.33 654,-476.33 654,-487.67 654,-487.67 654,-493.33 648.33,-499 642.67,-499 642.67,-499 567.33,-499 567.33,-499 561.67,-499 556,-493.33 556,-487.67 556,-487.67 556,-476.33 556,-476.33 556,-470.67 561.67,-465 567.33,-465"/>
</g>
<!-- main_pass_driver&#45;&gt;ui_pass_driver -->
<g id="edge10" class="edge">
<title>main_pass_driver:e&#45;&gt;ui_pass_driver:w</title>
<path fill="none" stroke="white" d="M466,-507C504.73,-507 514.12,-486.11 547.81,-482.52"/>
<polygon fill="white" stroke="white" points="548.19,-486.01 558,-482 547.83,-479.02 548.19,-486.01"/>
</g>
<!-- main_pass_dependencies -->
<g id="node12" class="node">
<title>main_pass_dependencies</title>
<text text-anchor="start" x="64" y="-478.8" font-family="Helvetica,sans-Serif" font-size="14.00" fill="white">main_pass_dependencies</text>
<text text-anchor="start" x="117" y="-468" font-family="Helvetica,sans-Serif" font-size="10.00" fill="red">EmptyNode</text>
<path fill="none" stroke="#99aab5" d="M70.33,-460C70.33,-460 215.67,-460 215.67,-460 221.33,-460 227,-465.67 227,-471.33 227,-471.33 227,-482.67 227,-482.67 227,-488.33 221.33,-494 215.67,-494 215.67,-494 70.33,-494 70.33,-494 64.67,-494 59,-488.33 59,-482.67 59,-482.67 59,-471.33 59,-471.33 59,-465.67 64.67,-460 70.33,-460"/>
</g>
<!-- main_pass_dependencies&#45;&gt;main_pass_driver -->
<g id="edge6" class="edge">
<title>main_pass_dependencies:e&#45;&gt;main_pass_driver:w</title>
<path fill="none" stroke="white" d="M225,-477C279.49,-477 292.5,-503.48 341.96,-506.68"/>
<polygon fill="white" stroke="white" points="341.89,-510.18 352,-507 342.12,-503.19 341.89,-510.18"/>
</g>
<!-- ui_pass_driver&#45;&gt;egui_pass -->
<g id="edge9" class="edge">
<title>ui_pass_driver:e&#45;&gt;egui_pass:w</title>
<path fill="none" stroke="white" d="M652,-482C690.63,-482 700.2,-502.05 733.83,-505.5"/>
<polygon fill="white" stroke="white" points="733.84,-509 744,-506 734.18,-502.01 733.84,-509"/>
</g>
</g>
</svg>
