{
    "asset" : {
        "generator" : "Khronos glTF Blender I/O v1.6.16",
        "version" : "2.0"
    },
    "scene" : 0,
    "scenes" : [
        {
            "name" : "Scene",
            "nodes" : [
                0,
                1,
                2,
                3,
                4,
                5,
                6,
                7,
                8,
                9,
                10,
                11,
                12,
                13
            ]
        }
    ],
    "nodes" : [
        {
            "name" : "Light.001",
            "rotation" : [
                0.16907575726509094,
                0.7558803558349609,
                -0.27217137813568115,
                0.570947527885437
            ],
            "translation" : [
                4.076245307922363,
                5.903861999511719,
                -1.0054539442062378
            ]
        },
        {
            "name" : "Camera.001",
            "rotation" : [
                0.483536034822464,
                0.33687159419059753,
                -0.20870360732078552,
                0.7804827094078064
            ],
            "translation" : [
                7.358891487121582,
                4.958309173583984,
                6.925790786743164
            ]
        },
        {
            "mesh" : 0,
            "name" : "Text.001",
            "translation" : [
                0,
                0,
                -1
            ]
        },
        {
            "mesh" : 1,
            "name" : "Text.002"
        },
        {
            "mesh" : 2,
            "name" : "Text.003",
            "translation" : [
                0,
                0,
                1
            ]
        },
        {
            "mesh" : 3,
            "name" : "Text.004",
            "translation" : [
                0,
                0,
                2
            ]
        },
        {
            "mesh" : 4,
            "name" : "Text.005",
            "translation" : [
                0,
                0,
                3
            ]
        },
        {
            "mesh" : 5,
            "name" : "Text.006",
            "translation" : [
                0,
                0,
                4
            ]
        },
        {
            "mesh" : 6,
            "name" : "Text.007",
            "translation" : [
                0,
                0,
                5
            ]
        },
        {
            "mesh" : 7,
            "name" : "Text.008",
            "translation" : [
                0,
                0,
                6
            ]
        },
        {
            "mesh" : 8,
            "name" : "Text.009",
            "translation" : [
                0,
                0,
                7
            ]
        },
        {
            "mesh" : 9,
            "name" : "Text.000",
            "translation" : [
                0,
                0,
                -2
            ]
        },
        {
            "name" : "Light",
            "rotation" : [
                0.16907575726509094,
                0.7558803558349609,
                -0.27217137813568115,
                0.570947527885437
            ],
            "translation" : [
                4.076245307922363,
                5.903861999511719,
                -1.0054539442062378
            ]
        },
        {
            "name" : "Camera",
            "rotation" : [
                0.483536034822464,
                0.33687159419059753,
                -0.20870360732078552,
                0.7804827094078064
            ],
            "translation" : [
                7.358891487121582,
                4.958309173583984,
                6.925790786743164
            ]
        }
    ],
    "meshes" : [
        {
            "name" : "Text.000",
            "primitives" : [
                {
                    "attributes" : {
                        "POSITION" : 36,
                        "NORMAL" : 37,
                        "TEXCOORD_0" : 38
                    },
                    "indices" : 39
                }
            ]
         },
        {
            "name" : "Text.001",
            "primitives" : [
                {
                    "attributes" : {
                        "POSITION" : 0,
                        "NORMAL" : 1,
                        "TEXCOORD_0" : 2
                    },
                    "indices" : 3
                }
            ]
        },
        {
            "name" : "Text.002",
            "primitives" : [
                {
                    "attributes" : {
                        "POSITION" : 4,
                        "NORMAL" : 5,
                        "TEXCOORD_0" : 6
                    },
                    "indices" : 7
                }
            ]
        },
        {
            "name" : "Text.003",
            "primitives" : [
                {
                    "attributes" : {
                        "POSITION" : 8,
                        "NORMAL" : 9,
                        "TEXCOORD_0" : 10
                    },
                    "indices" : 11
                }
            ]
        },
        {
            "name" : "Text.004",
            "primitives" : [
                {
                    "attributes" : {
                        "POSITION" : 12,
                        "NORMAL" : 13,
                        "TEXCOORD_0" : 14
                    },
                    "indices" : 15
                }
            ]
        },
        {
            "name" : "Text.005",
            "primitives" : [
                {
                    "attributes" : {
                        "POSITION" : 16,
                        "NORMAL" : 17,
                        "TEXCOORD_0" : 18
                    },
                    "indices" : 19
                }
            ]
        },
        {
            "name" : "Text.006",
            "primitives" : [
                {
                    "attributes" : {
                        "POSITION" : 20,
                        "NORMAL" : 21,
                        "TEXCOORD_0" : 22
                    },
                    "indices" : 23
                }
            ]
        },
        {
            "name" : "Text.007",
            "primitives" : [
                {
                    "attributes" : {
                        "POSITION" : 24,
                        "NORMAL" : 25,
                        "TEXCOORD_0" : 26
                    },
                    "indices" : 27
                }
            ]
        },
        {
            "name" : "Text.008",
            "primitives" : [
                {
                    "attributes" : {
                        "POSITION" : 28,
                        "NORMAL" : 29,
                        "TEXCOORD_0" : 30
                    },
                    "indices" : 31
                }
            ]
        },
        {
            "name" : "Text.009",
            "primitives" : [
                {
                    "attributes" : {
                        "POSITION" : 32,
                        "NORMAL" : 33,
                        "TEXCOORD_0" : 34
                    },
                    "indices" : 35
                }
            ]
        }
    ],
    "accessors" : [
        {
            "bufferView" : 0,
            "componentType" : 5126,
            "count" : 4,
            "max" : [
                0.30000001192092896,
                0,
                0
            ],
            "min" : [
                0.20200000703334808,
                0,
                -0.6820000410079956
            ],
            "type" : "VEC3"
        },
        {
            "bufferView" : 1,
            "componentType" : 5126,
            "count" : 4,
            "type" : "VEC3"
        },
        {
            "bufferView" : 2,
            "componentType" : 5126,
            "count" : 4,
            "type" : "VEC2"
        },
        {
            "bufferView" : 3,
            "componentType" : 5123,
            "count" : 6,
            "type" : "SCALAR"
        },
        {
            "bufferView" : 4,
            "componentType" : 5126,
            "count" : 116,
            "max" : [
                0.4660000205039978,
                0,
                0
            ],
            "min" : [
                0.03400000184774399,
                0,
                -0.6910000443458557
            ],
            "type" : "VEC3"
        },
        {
            "bufferView" : 5,
            "componentType" : 5126,
            "count" : 116,
            "type" : "VEC3"
        },
        {
            "bufferView" : 6,
            "componentType" : 5126,
            "count" : 116,
            "type" : "VEC2"
        },
        {
            "bufferView" : 7,
            "componentType" : 5123,
            "count" : 261,
            "type" : "SCALAR"
        },
        {
            "bufferView" : 8,
            "componentType" : 5126,
            "count" : 193,
            "max" : [
                0.4240000247955322,
                0,
                0.009000000543892384
            ],
            "min" : [
                0.06400000303983688,
                0,
                -0.6910000443458557
            ],
            "type" : "VEC3"
        },
        {
            "bufferView" : 9,
            "componentType" : 5126,
            "count" : 193,
            "type" : "VEC3"
        },
        {
            "bufferView" : 10,
            "componentType" : 5126,
            "count" : 193,
            "type" : "VEC2"
        },
        {
            "bufferView" : 11,
            "componentType" : 5123,
            "count" : 435,
            "type" : "SCALAR"
        },
        {
            "bufferView" : 12,
            "componentType" : 5126,
            "count" : 18,
            "max" : [
                0.4710000157356262,
                0,
                0
            ],
            "min" : [
                0.01100000087171793,
                0,
                -0.6910000443458557
            ],
            "type" : "VEC3"
        },
        {
            "bufferView" : 13,
            "componentType" : 5126,
            "count" : 18,
            "type" : "VEC3"
        },
        {
            "bufferView" : 14,
            "componentType" : 5126,
            "count" : 18,
            "type" : "VEC2"
        },
        {
            "bufferView" : 15,
            "componentType" : 5123,
            "count" : 45,
            "type" : "SCALAR"
        },
        {
            "bufferView" : 16,
            "componentType" : 5126,
            "count" : 112,
            "max" : [
                0.43800002336502075,
                0,
                0.009000000543892384
            ],
            "min" : [
                0.05000000074505806,
                0,
                -0.6820000410079956
            ],
            "type" : "VEC3"
        },
        {
            "bufferView" : 17,
            "componentType" : 5126,
            "count" : 112,
            "type" : "VEC3"
        },
        {
            "bufferView" : 18,
            "componentType" : 5126,
            "count" : 112,
            "type" : "VEC2"
        },
        {
            "bufferView" : 19,
            "componentType" : 5123,
            "count" : 228,
            "type" : "SCALAR"
        },
        {
            "bufferView" : 20,
            "componentType" : 5126,
            "count" : 158,
            "max" : [
                0.4650000333786011,
                0,
                0.009000000543892384
            ],
            "min" : [
                0.04400000348687172,
                0,
                -0.6910000443458557
            ],
            "type" : "VEC3"
        },
        {
            "bufferView" : 21,
            "componentType" : 5126,
            "count" : 158,
            "type" : "VEC3"
        },
        {
            "bufferView" : 22,
            "componentType" : 5126,
            "count" : 158,
            "type" : "VEC2"
        },
        {
            "bufferView" : 23,
            "componentType" : 5123,
            "count" : 363,
            "type" : "SCALAR"
        },
        {
            "bufferView" : 24,
            "componentType" : 5126,
            "count" : 8,
            "max" : [
                0.49000000953674316,
                0,
                0.009000000543892384
            ],
            "min" : [
                0.049000002443790436,
                0,
                -0.6820000410079956
            ],
            "type" : "VEC3"
        },
        {
            "bufferView" : 25,
            "componentType" : 5126,
            "count" : 8,
            "type" : "VEC3"
        },
        {
            "bufferView" : 26,
            "componentType" : 5126,
            "count" : 8,
            "type" : "VEC2"
        },
        {
            "bufferView" : 27,
            "componentType" : 5123,
            "count" : 12,
            "type" : "SCALAR"
        },
        {
            "bufferView" : 28,
            "componentType" : 5126,
            "count" : 263,
            "max" : [
                0.46800002455711365,
                0,
                0.009000000543892384
            ],
            "min" : [
                0.03200000151991844,
                0,
                -0.6910000443458557
            ],
            "type" : "VEC3"
        },
        {
            "bufferView" : 29,
            "componentType" : 5126,
            "count" : 263,
            "type" : "VEC3"
        },
        {
            "bufferView" : 30,
            "componentType" : 5126,
            "count" : 263,
            "type" : "VEC2"
        },
        {
            "bufferView" : 31,
            "componentType" : 5123,
            "count" : 582,
            "type" : "SCALAR"
        },
        {
            "bufferView" : 32,
            "componentType" : 5126,
            "count" : 170,
            "max" : [
                0.4610000252723694,
                0,
                0.009000000543892384
            ],
            "min" : [
                0.036000002175569534,
                0,
                -0.6910000443458557
            ],
            "type" : "VEC3"
        },
        {
            "bufferView" : 33,
            "componentType" : 5126,
            "count" : 170,
            "type" : "VEC3"
        },
        {
            "bufferView" : 34,
            "componentType" : 5126,
            "count" : 170,
            "type" : "VEC2"
        },
        {
            "bufferView" : 35,
            "componentType" : 5123,
            "count" : 399,
            "type" : "SCALAR"
        },
        {
            "bufferView" : 36,
            "componentType" : 5126,
            "count" : 146,
            "max" : [
                0.4700000286102295,
                0,
                0.009000000543892384
            ],
            "min" : [
                0.030000001192092896,
                0,
                -0.6910000443458557
            ],
            "type" : "VEC3"
        },
        {
            "bufferView" : 37,
            "componentType" : 5126,
            "count" : 146,
            "type" : "VEC3"
        },
        {
            "bufferView" : 38,
            "componentType" : 5126,
            "count" : 146,
            "type" : "VEC2"
        },
        {
            "bufferView" : 39,
            "componentType" : 5123,
            "count" : 288,
            "type" : "SCALAR"
        }
    ],
    "bufferViews" : [
        {
            "buffer" : 0,
            "byteLength" : 48,
            "byteOffset" : 0
        },
        {
            "buffer" : 0,
            "byteLength" : 48,
            "byteOffset" : 48
        },
        {
            "buffer" : 0,
            "byteLength" : 32,
            "byteOffset" : 96
        },
        {
            "buffer" : 0,
            "byteLength" : 12,
            "byteOffset" : 128
        },
        {
            "buffer" : 0,
            "byteLength" : 1392,
            "byteOffset" : 140
        },
        {
            "buffer" : 0,
            "byteLength" : 1392,
            "byteOffset" : 1532
        },
        {
            "buffer" : 0,
            "byteLength" : 928,
            "byteOffset" : 2924
        },
        {
            "buffer" : 0,
            "byteLength" : 522,
            "byteOffset" : 3852
        },
        {
            "buffer" : 0,
            "byteLength" : 2316,
            "byteOffset" : 4376
        },
        {
            "buffer" : 0,
            "byteLength" : 2316,
            "byteOffset" : 6692
        },
        {
            "buffer" : 0,
            "byteLength" : 1544,
            "byteOffset" : 9008
        },
        {
            "buffer" : 0,
            "byteLength" : 870,
            "byteOffset" : 10552
        },
        {
            "buffer" : 0,
            "byteLength" : 216,
            "byteOffset" : 11424
        },
        {
            "buffer" : 0,
            "byteLength" : 216,
            "byteOffset" : 11640
        },
        {
            "buffer" : 0,
            "byteLength" : 144,
            "byteOffset" : 11856
        },
        {
            "buffer" : 0,
            "byteLength" : 90,
            "byteOffset" : 12000
        },
        {
            "buffer" : 0,
            "byteLength" : 1344,
            "byteOffset" : 12092
        },
        {
            "buffer" : 0,
            "byteLength" : 1344,
            "byteOffset" : 13436
        },
        {
            "buffer" : 0,
            "byteLength" : 896,
            "byteOffset" : 14780
        },
        {
            "buffer" : 0,
            "byteLength" : 456,
            "byteOffset" : 15676
        },
        {
            "buffer" : 0,
            "byteLength" : 1896,
            "byteOffset" : 16132
        },
        {
            "buffer" : 0,
            "byteLength" : 1896,
            "byteOffset" : 18028
        },
        {
            "buffer" : 0,
            "byteLength" : 1264,
            "byteOffset" : 19924
        },
        {
            "buffer" : 0,
            "byteLength" : 726,
            "byteOffset" : 21188
        },
        {
            "buffer" : 0,
            "byteLength" : 96,
            "byteOffset" : 21916
        },
        {
            "buffer" : 0,
            "byteLength" : 96,
            "byteOffset" : 22012
        },
        {
            "buffer" : 0,
            "byteLength" : 64,
            "byteOffset" : 22108
        },
        {
            "buffer" : 0,
            "byteLength" : 24,
            "byteOffset" : 22172
        },
        {
            "buffer" : 0,
            "byteLength" : 3156,
            "byteOffset" : 22196
        },
        {
            "buffer" : 0,
            "byteLength" : 3156,
            "byteOffset" : 25352
        },
        {
            "buffer" : 0,
            "byteLength" : 2104,
            "byteOffset" : 28508
        },
        {
            "buffer" : 0,
            "byteLength" : 1164,
            "byteOffset" : 30612
        },
        {
            "buffer" : 0,
            "byteLength" : 2040,
            "byteOffset" : 31776
        },
        {
            "buffer" : 0,
            "byteLength" : 2040,
            "byteOffset" : 33816
        },
        {
            "buffer" : 0,
            "byteLength" : 1360,
            "byteOffset" : 35856
        },
        {
            "buffer" : 0,
            "byteLength" : 798,
            "byteOffset" : 37216
        },
        {
            "buffer" : 0,
            "byteLength" : 1752,
            "byteOffset" : 38016
        },
        {
            "buffer" : 0,
            "byteLength" : 1752,
            "byteOffset" : 39768
        },
        {
            "buffer" : 0,
            "byteLength" : 1168,
            "byteOffset" : 41520
        },
        {
            "buffer" : 0,
            "byteLength" : 576,
            "byteOffset" : 42688
        }
    ],
    "buffers" : [
        {
            "byteLength" : 43264,
            "uri" : "data:application/octet-stream;base64,"
        }
    ]
}
